<?xml version="1.0" encoding="utf-8"?>
<!-- Generator: Adobe Illustrator 16.0.0, SVG Export Plug-In . SVG Version: 6.00 Build 0)  -->
<!DOCTYPE svg PUBLIC "-//W3C//DTD SVG 1.1//EN" "http://www.w3.org/Graphics/SVG/1.1/DTD/svg11.dtd">
<svg version="1.1" id="Layer_1" xmlns="http://www.w3.org/2000/svg" xmlns:xlink="http://www.w3.org/1999/xlink" x="0px" y="0px"
	 width="100px" height="100px" viewBox="0 0 100 100" enable-background="new 0 0 100 100" xml:space="preserve">
<path fill="#212121" d="M42.14,34.729h1.703l4.647,11.49h-1.735l-1.241-2.992h-5.331l-1.241,2.992h-1.64L42.14,34.729z
	 M40.692,41.938h4.345l-2.117-5.634L40.692,41.938z"/>
<g>
	<defs>
		<rect id="SVGID_1_" width="100" height="100"/>
	</defs>
	<clipPath id="SVGID_2_">
		<use xlink:href="#SVGID_1_"  overflow="visible"/>
	</clipPath>
	<path clip-path="url(#SVGID_2_)" fill="#212121" d="M55.511,34.744h1.496v10.202c0,0.175,0.031,0.859,0.063,1.273h-1.496
		l-0.031-1.273c-0.128,0.223-0.303,0.557-0.717,0.843c-0.652,0.446-1.433,0.589-1.974,0.589c-1.066,0-3.438-0.557-3.438-4.058
		c0-3.04,1.735-4.361,3.613-4.361c1.719,0,2.291,1.019,2.482,1.353V34.744z M54.954,39.885c-0.318-0.414-0.907-0.812-1.751-0.812
		c-2.196,0-2.196,2.658-2.196,3.199c0,1.417,0.366,3.056,2.196,3.056c2.354,0,2.354-2.594,2.354-3.215
		C55.558,40.951,55.288,40.315,54.954,39.885"/>
	<path clip-path="url(#SVGID_2_)" fill="#212121" d="M65.221,34.744h1.496v10.202c0,0.175,0.032,0.859,0.064,1.273h-1.496
		l-0.032-1.273c-0.127,0.223-0.303,0.557-0.716,0.843c-0.652,0.446-1.433,0.589-1.974,0.589c-1.066,0-3.438-0.557-3.438-4.058
		c0-3.04,1.734-4.361,3.612-4.361c1.719,0,2.292,1.019,2.482,1.353V34.744z M64.664,39.885c-0.318-0.414-0.907-0.812-1.751-0.812
		c-2.196,0-2.196,2.658-2.196,3.199c0,1.417,0.366,3.056,2.196,3.056c2.355,0,2.355-2.594,2.355-3.215
		C65.269,40.951,64.998,40.315,64.664,39.885"/>
	<path clip-path="url(#SVGID_2_)" fill="#212121" d="M72.608,38.198h1.417v-1.671l1.479-0.477v2.148h1.784v1.098h-1.784v4.79
		c0,0.398,0,1.067,1.067,1.067c0.303,0,0.589-0.048,0.717-0.08v1.162c-0.271,0.047-0.701,0.095-1.241,0.095
		c-1.369,0-2.021-0.398-2.021-1.702v-5.332h-1.417V38.198z"/>
	<path clip-path="url(#SVGID_2_)" fill="#212121" d="M82.509,38.023c3.199,0,3.915,2.515,3.915,4.186
		c0,2.339-1.321,4.281-4.043,4.281c-2.642,0-3.931-1.83-3.931-4.17C78.45,40.347,79.373,38.023,82.509,38.023 M82.413,45.376
		c1.13,0,2.419-0.812,2.419-3.215c0-1.99-0.923-3.04-2.323-3.04c-0.955,0-2.499,0.605-2.499,3.104
		C80.01,43.864,80.71,45.376,82.413,45.376"/>
	<path clip-path="url(#SVGID_2_)" fill="#212121" d="M44.783,53.831h4.107c1.399,0,2.18,0.143,2.896,0.843
		c0.494,0.478,0.812,1.146,0.812,2.054c0,1.894-1.384,2.387-1.941,2.594c0.669,0.19,2.292,0.669,2.292,2.865
		c0,1.56-1.003,2.354-1.385,2.609c-0.796,0.525-1.687,0.525-2.594,0.525h-4.186V53.831z M46.327,58.685h2.228
		c0.541,0,2.388,0,2.388-1.814c0-1.734-1.449-1.734-2.324-1.734h-2.292V58.685z M46.327,64.032h2.722
		c1.257,0,2.259-0.669,2.259-1.989c0-1.146-0.795-1.99-2.196-1.99h-2.785V64.032z"/>
	<path clip-path="url(#SVGID_2_)" fill="#212121" d="M58.759,57.124c3.199,0,3.915,2.516,3.915,4.187
		c0,2.34-1.321,4.281-4.043,4.281c-2.642,0-3.931-1.83-3.931-4.17C54.7,59.448,55.623,57.124,58.759,57.124 M58.663,64.478
		c1.13,0,2.419-0.812,2.419-3.215c0-1.989-0.923-3.039-2.323-3.039c-0.955,0-2.499,0.604-2.499,3.103
		C56.26,62.966,56.96,64.478,58.663,64.478"/>
	<path clip-path="url(#SVGID_2_)" fill="#212121" d="M68.469,57.124c3.199,0,3.915,2.516,3.915,4.187
		c0,2.34-1.322,4.281-4.043,4.281c-2.642,0-3.931-1.83-3.931-4.17C64.41,59.448,65.333,57.124,68.469,57.124 M68.373,64.478
		c1.13,0,2.419-0.812,2.419-3.215c0-1.989-0.923-3.039-2.323-3.039c-0.955,0-2.499,0.604-2.499,3.103
		C65.97,62.966,66.67,64.478,68.373,64.478"/>
	<polygon clip-path="url(#SVGID_2_)" fill="#212121" points="74.565,53.751 76.045,53.751 76.045,60.595 79.037,57.332 
		80.995,57.332 77.621,60.722 81.202,65.321 79.244,65.321 76.045,61.009 76.045,65.321 74.565,65.321 	"/>
	<path clip-path="url(#SVGID_2_)" fill="#212121" d="M100,0H0v100h100V0z M1,1h23.454v98H1V1z M99,99H25.454V1H99V99z"/>
</g>
</svg>
