<?xml version="1.0" encoding="utf-8"?>
<!-- Generator: Adobe Illustrator 16.0.0, SVG Export Plug-In . SVG Version: 6.00 Build 0)  -->
<!DOCTYPE svg PUBLIC "-//W3C//DTD SVG 1.1//EN" "http://www.w3.org/Graphics/SVG/1.1/DTD/svg11.dtd">
<svg version="1.1" id="Layer_1" xmlns="http://www.w3.org/2000/svg" xmlns:xlink="http://www.w3.org/1999/xlink" x="0px" y="0px"
	 width="100px" height="100px" viewBox="0 0 100 100" enable-background="new 0 0 100 100" xml:space="preserve">
<path fill="#212121" d="M1,1h74v24h24v74H1V1z M0,0v100h100V24H76V0H0z"/>
<g>
	<defs>
		<rect id="SVGID_1_" width="100" height="100"/>
	</defs>
	<clipPath id="SVGID_2_">
		<use xlink:href="#SVGID_1_"  overflow="visible"/>
	</clipPath>
	<path clip-path="url(#SVGID_2_)" fill="#212121" d="M13.062,34.72h3.326c1.544,0,3.359,0,4.632,1.497
		c1.018,1.193,1.416,2.769,1.416,4.344c0,2.483-1.034,4.011-1.909,4.711c-1.13,0.939-2.547,0.939-4.234,0.939h-3.231V34.72z
		 M14.654,44.906h1.56c1.098,0,2.244-0.063,3.007-0.636c1.465-1.098,1.512-2.976,1.512-3.645c0-0.429-0.032-2.387-1.114-3.581
		c-0.732-0.811-1.655-1.002-3.055-1.002h-1.91V44.906z"/>
	<path clip-path="url(#SVGID_2_)" fill="#212121" d="M28.104,38.015c3.198,0,3.915,2.515,3.915,4.186
		c0,2.339-1.322,4.281-4.043,4.281c-2.642,0-3.931-1.83-3.931-4.17C24.045,40.339,24.968,38.015,28.104,38.015 M28.008,45.368
		c1.13,0,2.419-0.812,2.419-3.215c0-1.99-0.923-3.04-2.323-3.04c-0.955,0-2.499,0.605-2.499,3.104
		C25.605,43.856,26.305,45.368,28.008,45.368"/>
	<polygon clip-path="url(#SVGID_2_)" fill="#212121" points="34.631,38.222 36.557,44.588 38.578,38.222 40.536,38.222 
		42.35,44.524 44.355,38.222 45.899,38.222 43.082,46.211 41.363,46.211 39.485,39.639 37.401,46.211 35.634,46.211 32.992,38.222 	
		"/>
	<path clip-path="url(#SVGID_2_)" fill="#212121" d="M47.572,39.145l-0.016-0.923h1.496l0.016,1.289
		c0.175-0.334,0.748-1.448,2.562-1.448c0.716,0,2.896,0.27,2.896,2.722v5.426h-1.528v-5.076c0-0.526-0.063-1.003-0.43-1.369
		c-0.382-0.366-0.907-0.541-1.416-0.541c-1.082,0-2.085,0.779-2.085,2.387v4.599h-1.496V39.145z"/>
	<rect x="57.14" y="34.737" clip-path="url(#SVGID_2_)" fill="#212121" width="1.496" height="11.475"/>
	<path clip-path="url(#SVGID_2_)" fill="#212121" d="M64.891,38.015c3.199,0,3.915,2.515,3.915,4.186
		c0,2.339-1.321,4.281-4.043,4.281c-2.642,0-3.931-1.83-3.931-4.17C60.832,40.339,61.755,38.015,64.891,38.015 M64.795,45.368
		c1.13,0,2.419-0.812,2.419-3.215c0-1.99-0.923-3.04-2.323-3.04c-0.955,0-2.499,0.605-2.499,3.104
		C62.392,43.856,63.092,45.368,64.795,45.368"/>
	<path clip-path="url(#SVGID_2_)" fill="#212121" d="M75.906,46.211c-0.111-0.398-0.144-0.78-0.144-1.194
		c-0.716,1.322-1.798,1.449-2.467,1.449c-1.83,0-2.816-1.035-2.816-2.355c0-0.637,0.223-1.656,1.4-2.34
		c0.859-0.477,2.133-0.525,2.77-0.525c0.382,0,0.62,0.015,1.082,0.048c0-0.987,0-1.417-0.287-1.767
		c-0.301-0.398-0.954-0.525-1.384-0.525c-1.513,0-1.592,1.034-1.607,1.352h-1.496c0.048-0.413,0.095-0.97,0.557-1.512
		c0.604-0.668,1.734-0.859,2.578-0.859c1.162,0,2.403,0.366,2.833,1.178c0.255,0.477,0.271,0.859,0.271,1.225l-0.063,3.82
		c0,0.127,0.016,1.194,0.127,2.005H75.906z M74.872,42.28c-0.604,0-2.881,0-2.881,1.624c0,0.509,0.318,1.384,1.655,1.384
		c0.764,0,1.337-0.302,1.703-0.86c0.335-0.541,0.35-0.986,0.382-2.1C75.461,42.296,75.238,42.28,74.872,42.28"/>
	<path clip-path="url(#SVGID_2_)" fill="#212121" d="M85.377,34.736h1.496v10.202c0,0.175,0.032,0.859,0.064,1.273h-1.496
		l-0.032-1.273c-0.127,0.223-0.303,0.557-0.716,0.843c-0.652,0.446-1.433,0.589-1.974,0.589c-1.066,0-3.438-0.557-3.438-4.058
		c0-3.04,1.734-4.361,3.612-4.361c1.719,0,2.292,1.019,2.482,1.353V34.736z M84.82,39.877c-0.318-0.414-0.907-0.812-1.751-0.812
		c-2.196,0-2.196,2.658-2.196,3.199c0,1.417,0.366,3.056,2.196,3.056c2.354,0,2.354-2.594,2.354-3.215
		C85.424,40.943,85.154,40.308,84.82,39.877"/>
	<path clip-path="url(#SVGID_2_)" fill="#212121" d="M35.929,53.823h3.852c1.4,0,2.355,0.079,3.135,0.923
		c0.573,0.589,0.843,1.368,0.843,2.228c0,0.876-0.286,1.624-0.906,2.244c-0.605,0.605-1.401,0.987-3.47,0.987h-1.862v5.108h-1.592
		V53.823z M37.521,58.868h1.894c1.05,0,2.657-0.08,2.657-1.958c0-1.798-1.495-1.798-2.323-1.798h-2.228V58.868z"/>
	<path clip-path="url(#SVGID_2_)" fill="#212121" d="M45.624,53.823h3.326c1.544,0,3.359,0,4.632,1.496
		c1.02,1.193,1.416,2.769,1.416,4.345c0,2.482-1.034,4.01-1.91,4.71c-1.13,0.939-2.546,0.939-4.232,0.939h-3.231V53.823z
		 M47.215,64.009h1.56c1.097,0,2.244-0.064,3.007-0.637c1.464-1.099,1.512-2.977,1.512-3.645c0-0.43-0.03-2.388-1.113-3.581
		c-0.732-0.812-1.654-1.003-3.055-1.003h-1.91V64.009z"/>
	<polygon clip-path="url(#SVGID_2_)" fill="#212121" points="57.228,53.823 64.071,53.823 64.071,55.176 58.85,55.176 58.85,58.757 
		63.769,58.757 63.769,60.094 58.85,60.094 58.85,65.313 57.228,65.313 	"/>
</g>
</svg>
