<?xml version="1.0" encoding="utf-8"?>
<!-- Generator: Adobe Illustrator 17.1.0, SVG Export Plug-In . SVG Version: 6.00 Build 0)  -->
<!DOCTYPE svg PUBLIC "-//W3C//DTD SVG 1.1//EN" "http://www.w3.org/Graphics/SVG/1.1/DTD/svg11.dtd">
<svg version="1.1" id="Layer_1" xmlns="http://www.w3.org/2000/svg" xmlns:xlink="http://www.w3.org/1999/xlink" x="0px" y="0px"
	 viewBox="0 0 100 100" enable-background="new 0 0 100 100" xml:space="preserve">
<g>
	<g>
		<path fill="#212121" d="M-20,100h-100V0h76v24h24V100z M-119,99h98V25h-24V1h-74V99z"/>
	</g>
	<g>
		<path fill="#212121" d="M-106.9,34.7h3.3c1.5,0,3.4,0,4.6,1.5c1,1.2,1.4,2.8,1.4,4.3c0,2.5-1,4-1.9,4.7c-1.1,0.9-2.5,0.9-4.2,0.9
			h-3.2V34.7z M-105.3,44.9h1.6c1.1,0,2.2-0.1,3-0.6c1.5-1.1,1.5-3,1.5-3.6c0-0.4,0-2.4-1.1-3.6c-0.7-0.8-1.7-1-3.1-1h-1.9V44.9z"/>
		<path fill="#212121" d="M-91.9,38c3.2,0,3.9,2.5,3.9,4.2c0,2.3-1.3,4.3-4,4.3c-2.6,0-3.9-1.8-3.9-4.2C-96,40.3-95,38-91.9,38z
			 M-92,45.4c1.1,0,2.4-0.8,2.4-3.2c0-2-0.9-3-2.3-3c-1,0-2.5,0.6-2.5,3.1C-94.4,43.9-93.7,45.4-92,45.4z"/>
		<path fill="#212121" d="M-85.4,38.2l1.9,6.4l2-6.4h2l1.8,6.3l2-6.3h1.5l-2.8,8h-1.7l-1.9-6.6l-2.1,6.6h-1.8l-2.6-8H-85.4z"/>
		<path fill="#212121" d="M-72.4,39.1l0-0.9h1.5l0,1.3c0.2-0.3,0.7-1.4,2.6-1.4c0.7,0,2.9,0.3,2.9,2.7v5.4H-67v-5.1
			c0-0.5-0.1-1-0.4-1.4c-0.4-0.4-0.9-0.5-1.4-0.5c-1.1,0-2.1,0.8-2.1,2.4v4.6h-1.5V39.1z"/>
		<path fill="#212121" d="M-62.9,34.7h1.5v11.5h-1.5V34.7z"/>
		<path fill="#212121" d="M-55.1,38c3.2,0,3.9,2.5,3.9,4.2c0,2.3-1.3,4.3-4,4.3c-2.6,0-3.9-1.8-3.9-4.2C-59.2,40.3-58.2,38-55.1,38z
			 M-55.2,45.4c1.1,0,2.4-0.8,2.4-3.2c0-2-0.9-3-2.3-3c-1,0-2.5,0.6-2.5,3.1C-57.6,43.9-56.9,45.4-55.2,45.4z"/>
		<path fill="#212121" d="M-44.1,46.2c-0.1-0.4-0.1-0.8-0.1-1.2c-0.7,1.3-1.8,1.4-2.5,1.4c-1.8,0-2.8-1-2.8-2.4
			c0-0.6,0.2-1.7,1.4-2.3c0.9-0.5,2.1-0.5,2.8-0.5c0.4,0,0.6,0,1.1,0c0-1,0-1.4-0.3-1.8c-0.3-0.4-1-0.5-1.4-0.5
			c-1.5,0-1.6,1-1.6,1.4H-49c0-0.4,0.1-1,0.6-1.5c0.6-0.7,1.7-0.9,2.6-0.9c1.2,0,2.4,0.4,2.8,1.2c0.3,0.5,0.3,0.9,0.3,1.2l-0.1,3.8
			c0,0.1,0,1.2,0.1,2H-44.1z M-45.1,42.3c-0.6,0-2.9,0-2.9,1.6c0,0.5,0.3,1.4,1.7,1.4c0.8,0,1.3-0.3,1.7-0.9c0.3-0.5,0.3-1,0.4-2.1
			C-44.5,42.3-44.8,42.3-45.1,42.3z"/>
		<path fill="#212121" d="M-34.6,34.7h1.5v10.2c0,0.2,0,0.9,0.1,1.3h-1.5l0-1.3c-0.1,0.2-0.3,0.6-0.7,0.8c-0.7,0.4-1.4,0.6-2,0.6
			c-1.1,0-3.4-0.6-3.4-4.1c0-3,1.7-4.4,3.6-4.4c1.7,0,2.3,1,2.5,1.4V34.7z M-35.2,39.9c-0.3-0.4-0.9-0.8-1.8-0.8
			c-2.2,0-2.2,2.7-2.2,3.2c0,1.4,0.4,3.1,2.2,3.1c2.4,0,2.4-2.6,2.4-3.2C-34.6,40.9-34.8,40.3-35.2,39.9z"/>
	</g>
	<g>
		<path fill="#212121" d="M-84.1,53.8h3.9c1.4,0,2.4,0.1,3.1,0.9c0.6,0.6,0.8,1.4,0.8,2.2c0,0.9-0.3,1.6-0.9,2.2
			c-0.6,0.6-1.4,1-3.5,1h-1.9v5.1h-1.6V53.8z M-82.5,58.9h1.9c1.1,0,2.7-0.1,2.7-2c0-1.8-1.5-1.8-2.3-1.8h-2.2V58.9z"/>
		<path fill="#212121" d="M-74.4,53.8h3.3c1.5,0,3.4,0,4.6,1.5c1,1.2,1.4,2.8,1.4,4.3c0,2.5-1,4-1.9,4.7c-1.1,0.9-2.5,0.9-4.2,0.9
			h-3.2V53.8z M-72.8,64h1.6c1.1,0,2.2-0.1,3-0.6c1.5-1.1,1.5-3,1.5-3.6c0-0.4,0-2.4-1.1-3.6c-0.7-0.8-1.7-1-3.1-1h-1.9V64z"/>
		<path fill="#212121" d="M-62.8,53.8h6.8v1.4h-5.2v3.6h4.9v1.3h-4.9v5.2h-1.6V53.8z"/>
	</g>
</g>
<g>
	<path fill="#212121" d="M42.1,34.7h1.7l4.6,11.5h-1.7l-1.2-3h-5.3l-1.2,3h-1.6L42.1,34.7z M40.7,41.9H45l-2.1-5.6L40.7,41.9z"/>
	<path fill="#212121" d="M55.5,34.7H57v10.2c0,0.2,0,0.9,0.1,1.3h-1.5l0-1.3c-0.1,0.2-0.3,0.6-0.7,0.8c-0.7,0.4-1.4,0.6-2,0.6
		c-1.1,0-3.4-0.6-3.4-4.1c0-3,1.7-4.4,3.6-4.4c1.7,0,2.3,1,2.5,1.4V34.7z M55,39.9c-0.3-0.4-0.9-0.8-1.8-0.8c-2.2,0-2.2,2.7-2.2,3.2
		c0,1.4,0.4,3.1,2.2,3.1c2.4,0,2.4-2.6,2.4-3.2C55.6,41,55.3,40.3,55,39.9z"/>
	<path fill="#212121" d="M65.2,34.7h1.5v10.2c0,0.2,0,0.9,0.1,1.3h-1.5l0-1.3c-0.1,0.2-0.3,0.6-0.7,0.8c-0.7,0.4-1.4,0.6-2,0.6
		c-1.1,0-3.4-0.6-3.4-4.1c0-3,1.7-4.4,3.6-4.4c1.7,0,2.3,1,2.5,1.4V34.7z M64.7,39.9c-0.3-0.4-0.9-0.8-1.8-0.8
		c-2.2,0-2.2,2.7-2.2,3.2c0,1.4,0.4,3.1,2.2,3.1c2.4,0,2.4-2.6,2.4-3.2C65.3,41,65,40.3,64.7,39.9z"/>
	<path fill="#212121" d="M72.6,38.2H74v-1.7l1.5-0.5v2.1h1.8v1.1h-1.8v4.8c0,0.4,0,1.1,1.1,1.1c0.3,0,0.6,0,0.7-0.1v1.2
		c-0.3,0-0.7,0.1-1.2,0.1c-1.4,0-2-0.4-2-1.7v-5.3h-1.4V38.2z"/>
	<path fill="#212121" d="M82.5,38c3.2,0,3.9,2.5,3.9,4.2c0,2.3-1.3,4.3-4,4.3c-2.6,0-3.9-1.8-3.9-4.2C78.5,40.3,79.4,38,82.5,38z
		 M82.4,45.4c1.1,0,2.4-0.8,2.4-3.2c0-2-0.9-3-2.3-3c-1,0-2.5,0.6-2.5,3.1C80,43.9,80.7,45.4,82.4,45.4z"/>
	<path fill="#212121" d="M44.8,53.8h4.1c1.4,0,2.2,0.1,2.9,0.8c0.5,0.5,0.8,1.1,0.8,2.1c0,1.9-1.4,2.4-1.9,2.6
		c0.7,0.2,2.3,0.7,2.3,2.9c0,1.6-1,2.4-1.4,2.6c-0.8,0.5-1.7,0.5-2.6,0.5h-4.2V53.8z M46.3,58.7h2.2c0.5,0,2.4,0,2.4-1.8
		c0-1.7-1.4-1.7-2.3-1.7h-2.3V58.7z M46.3,64H49c1.3,0,2.3-0.7,2.3-2c0-1.1-0.8-2-2.2-2h-2.8V64z"/>
	<path fill="#212121" d="M58.8,57.1c3.2,0,3.9,2.5,3.9,4.2c0,2.3-1.3,4.3-4,4.3c-2.6,0-3.9-1.8-3.9-4.2
		C54.7,59.4,55.6,57.1,58.8,57.1z M58.7,64.5c1.1,0,2.4-0.8,2.4-3.2c0-2-0.9-3-2.3-3c-1,0-2.5,0.6-2.5,3.1
		C56.3,63,57,64.5,58.7,64.5z"/>
	<path fill="#212121" d="M68.5,57.1c3.2,0,3.9,2.5,3.9,4.2c0,2.3-1.3,4.3-4,4.3c-2.6,0-3.9-1.8-3.9-4.2
		C64.4,59.4,65.3,57.1,68.5,57.1z M68.4,64.5c1.1,0,2.4-0.8,2.4-3.2c0-2-0.9-3-2.3-3c-1,0-2.5,0.6-2.5,3.1
		C66,63,66.7,64.5,68.4,64.5z"/>
	<path fill="#212121" d="M74.6,53.8H76v6.8l3-3.3h2l-3.4,3.4l3.6,4.6h-2L76,61v4.3h-1.5V53.8z"/>
</g>
<path fill="#212121" d="M100,0H0v100h100V0z M1,99V1h23v98H1z M99,99H25V1h74V99z"/>
<g>
	<rect x="240" fill="#FFFFFF" width="100" height="100"/>
	<g>
		<path fill="#212121" d="M275.7,44.3h3.9c1.4,0,2.4,0.1,3.1,0.9c0.6,0.6,0.8,1.4,0.8,2.2c0,0.9-0.3,1.6-0.9,2.2
			c-0.6,0.6-1.4,1-3.5,1h-1.9v5.1h-1.6V44.3z M277.3,49.3h1.9c1.1,0,2.7-0.1,2.7-2c0-1.8-1.5-1.8-2.3-1.8h-2.2V49.3z"/>
		<path fill="#212121" d="M285.4,44.3h1.5v11.5h-1.5V44.3z"/>
		<path fill="#212121" d="M294.5,55.8c-0.1-0.4-0.1-0.8-0.1-1.2c-0.7,1.3-1.8,1.4-2.5,1.4c-1.8,0-2.8-1-2.8-2.4
			c0-0.6,0.2-1.7,1.4-2.3c0.9-0.5,2.1-0.5,2.8-0.5c0.4,0,0.6,0,1.1,0c0-1,0-1.4-0.3-1.8c-0.3-0.4-1-0.5-1.4-0.5
			c-1.5,0-1.6,1-1.6,1.4h-1.5c0-0.4,0.1-1,0.6-1.5c0.6-0.7,1.7-0.9,2.6-0.9c1.2,0,2.4,0.4,2.8,1.2c0.3,0.5,0.3,0.9,0.3,1.2l-0.1,3.8
			c0,0.1,0,1.2,0.1,2H294.5z M293.4,51.8c-0.6,0-2.9,0-2.9,1.6c0,0.5,0.3,1.4,1.7,1.4c0.8,0,1.3-0.3,1.7-0.9c0.3-0.5,0.3-1,0.4-2.1
			C294,51.8,293.8,51.8,293.4,51.8z"/>
		<path fill="#212121" d="M301.9,55.8l-1.1,3h-1.5l1.2-3.1l-3.3-8h1.7l2.5,6.3l2.5-6.3h1.6L301.9,55.8z"/>
	</g>
</g>
<g>
	<g>
		<g>
			<path fill="#212121" d="M144.7,37.6c-0.2-1.1-1-1.8-2.6-1.8c-1.1,0-2,0.3-2.6,1c-1,1.1-1.2,2.6-1.2,3.7c0,1,0.2,2.6,1.1,3.6
				c0.7,0.9,1.9,1.1,3.1,1.1c1.3,0,2.1-0.3,2.5-0.4v-3.4h-2.6v-1.3h4.2v5.7c-0.7,0.2-2.1,0.7-4.1,0.7c-2.1,0-3.4-0.6-4.2-1.4
				c-1.1-1.1-1.6-2.8-1.6-4.4c0-1.1,0.3-3.9,2.5-5.3c1.1-0.8,2.6-0.8,3.2-0.8c0.9,0,2.3,0.1,3.4,1.2c0.7,0.7,0.7,1.4,0.8,1.8H144.7z
				"/>
			<path fill="#212121" d="M150.2,42.5c0,1.7,0.7,2.9,2.3,2.9c1,0,1.8-0.5,1.9-1.7h1.5c0,0.4-0.1,1.1-0.7,1.7
				c-0.4,0.4-1.1,1.1-2.8,1.1c-2.5,0-3.7-1.6-3.7-4.1c0-1.6,0.3-2.9,1.6-3.8c0.8-0.5,1.7-0.6,2.2-0.6c3.6,0,3.5,3.2,3.5,4.5H150.2z
				 M154.5,41.4c0-0.8-0.1-2.4-2-2.4c-1,0-2.1,0.6-2.2,2.4H154.5z"/>
			<path fill="#212121" d="M158.2,39.1l0-0.9h1.5l0,1.3c0.2-0.3,0.7-1.4,2.6-1.4c0.7,0,2.9,0.3,2.9,2.7v5.4h-1.5v-5.1
				c0-0.5-0.1-1-0.4-1.4c-0.4-0.4-0.9-0.5-1.4-0.5c-1.1,0-2.1,0.8-2.1,2.4v4.6h-1.5V39.1z"/>
			<path fill="#212121" d="M168.8,42.5c0,1.7,0.7,2.9,2.3,2.9c1,0,1.8-0.5,1.9-1.7h1.5c0,0.4-0.1,1.1-0.7,1.7
				c-0.4,0.4-1.1,1.1-2.8,1.1c-2.5,0-3.7-1.6-3.7-4.1c0-1.6,0.3-2.9,1.6-3.8c0.8-0.5,1.7-0.6,2.2-0.6c3.6,0,3.5,3.2,3.5,4.5H168.8z
				 M173,41.4c0-0.8-0.1-2.4-2-2.4c-1,0-2.1,0.6-2.2,2.4H173z"/>
			<path fill="#212121" d="M176.7,39.8c0-0.5,0-1.1-0.1-1.6h1.5l0,1.5c0.3-1.1,1.2-1.5,1.9-1.6c0.4-0.1,0.8,0,1,0v1.5
				c-0.1,0-0.2,0-0.3-0.1c-0.1,0-0.3,0-0.4,0c-1.8,0-2.2,1.1-2.2,2.4v4.2h-1.5V39.8z"/>
			<path fill="#212121" d="M187.7,46.2c-0.1-0.4-0.1-0.8-0.1-1.2c-0.7,1.3-1.8,1.4-2.5,1.4c-1.8,0-2.8-1-2.8-2.4
				c0-0.6,0.2-1.7,1.4-2.3c0.9-0.5,2.1-0.5,2.8-0.5c0.4,0,0.6,0,1.1,0c0-1,0-1.4-0.3-1.8c-0.3-0.4-1-0.5-1.4-0.5
				c-1.5,0-1.6,1-1.6,1.4h-1.5c0-0.4,0.1-1,0.6-1.5c0.6-0.7,1.7-0.9,2.6-0.9c1.2,0,2.4,0.4,2.8,1.2c0.3,0.5,0.3,0.9,0.3,1.2
				l-0.1,3.8c0,0.1,0,1.2,0.1,2H187.7z M186.7,42.3c-0.6,0-2.9,0-2.9,1.6c0,0.5,0.3,1.4,1.7,1.4c0.8,0,1.3-0.3,1.7-0.9
				c0.3-0.5,0.3-1,0.4-2.1C187.3,42.3,187.1,42.3,186.7,42.3z"/>
			<path fill="#212121" d="M190.5,38.2h1.4v-1.7l1.5-0.5v2.1h1.8v1.1h-1.8v4.8c0,0.4,0,1.1,1.1,1.1c0.3,0,0.6,0,0.7-0.1v1.2
				c-0.3,0-0.7,0.1-1.2,0.1c-1.4,0-2-0.4-2-1.7v-5.3h-1.4V38.2z"/>
			<path fill="#212121" d="M197.9,42.5c0,1.7,0.7,2.9,2.3,2.9c1,0,1.8-0.5,1.9-1.7h1.5c0,0.4-0.1,1.1-0.7,1.7
				c-0.4,0.4-1.1,1.1-2.8,1.1c-2.5,0-3.7-1.6-3.7-4.1c0-1.6,0.3-2.9,1.6-3.8c0.8-0.5,1.7-0.6,2.2-0.6c3.6,0,3.5,3.2,3.5,4.5H197.9z
				 M202.2,41.4c0-0.8-0.1-2.4-2-2.4c-1,0-2.1,0.6-2.2,2.4H202.2z"/>
		</g>
		<g>
			<path fill="#212121" d="M156.4,53.8h3.9c1.4,0,2.4,0.1,3.1,0.9c0.6,0.6,0.8,1.4,0.8,2.2c0,0.9-0.3,1.6-0.9,2.2
				c-0.6,0.6-1.4,1-3.5,1H158v5.1h-1.6V53.8z M158,58.9h1.9c1,0,2.7-0.1,2.7-2c0-1.8-1.5-1.8-2.3-1.8H158V58.9z"/>
			<path fill="#212121" d="M166.1,53.8h3.3c1.5,0,3.4,0,4.6,1.5c1,1.2,1.4,2.8,1.4,4.3c0,2.5-1,4-1.9,4.7c-1.1,0.9-2.5,0.9-4.2,0.9
				h-3.2V53.8z M167.7,64h1.6c1.1,0,2.2-0.1,3-0.6c1.5-1.1,1.5-3,1.5-3.6c0-0.4,0-2.4-1.1-3.6c-0.7-0.8-1.7-1-3.1-1h-1.9V64z"/>
			<path fill="#212121" d="M177.7,53.8h6.8v1.4h-5.2v3.6h4.9v1.3h-4.9v5.2h-1.6V53.8z"/>
		</g>
	</g>
	<g>
		<path fill="#212121" d="M220,100H120V0h100V100z M121,99h98V1h-98V99z"/>
	</g>
</g>
<g>
	<rect x="-120" y="120" fill="none" width="24" height="24"/>
	<polygon fill="#757575" points="-97,122.4 -98.4,121 -108,130.6 -117.6,121 -119,122.4 -109.4,132 -119,141.6 -117.6,143 
		-108,133.4 -98.4,143 -97,141.6 -106.6,132 	"/>
</g>
<g>
	<rect x="-120" y="180" fill="none" width="24" height="24"/>
	<polygon fill="#FFFFFF" points="-97,182.4 -98.4,181 -108,190.6 -117.6,181 -119,182.4 -109.4,192 -119,201.6 -117.6,203 
		-108,193.4 -98.4,203 -97,201.6 -106.6,192 	"/>
</g>
<rect x="-60" y="180" fill="none" width="24" height="24"/>
<g>
	<polygon fill="#757575" points="-43.2,123.4 -44.6,122 -54.8,131.9 -44.9,142 -43.4,140.6 -51.9,131.9 	"/>
	<rect x="-60" y="120" fill="none" width="24" height="24"/>
</g>
<g>
	<polygon fill="#757575" points="7.2,140.6 8.6,142 18.8,132.1 8.9,122 7.4,123.4 15.9,132.1 	"/>
	<rect y="120" fill="none" width="24" height="24"/>
</g>
<g>
	<path fill="#757575" d="M72.6,125.5l8.4-2.7v0.2v15.9l-9,2.9l-9-2.9v-16.2l8.4,2.7l0.6,0.2L72.6,125.5z M83,120l-11,3.6L61,120
		v20.4l11,3.6l11-3.6V120z"/>
	<rect x="60" y="120" fill="none" width="24" height="24"/>
</g>
<polygon fill="#212121" points="-39.1,183.9 -39.9,183.1 -48,191.2 -56.1,183.1 -56.9,183.9 -48.8,192 -56.9,200.1 -56.1,200.9 
	-48,192.8 -39.9,200.9 -39.1,200.1 -47.2,192 "/>
</svg>
