<svg id="Layer_1" data-name="Layer 1" xmlns="http://www.w3.org/2000/svg" viewBox="0 0 174 174"><defs><style>.cls-1{fill:#212121;}</style></defs><title>mtd_down_Artboard 1</title><path class="cls-1" d="M130.25,1V43.75H173V173H1V1H130.25m1-1H0V174H174V42.75H131.25V0Z"/><rect class="cls-1" x="31.25" y="133.18" width="111.49" height="0.8"/><path class="cls-1" d="M24.55,60h1.58V70.16h5.38v1.42h-7Z"/><path class="cls-1" d="M33.17,60.06H35v1.65H33.17Zm.16,3.49h1.5v8h-1.5Z"/><path class="cls-1" d="M37.56,64.48l0-.93H39l0,1.3a2.62,2.62,0,0,1,2.58-1.46,2.68,2.68,0,0,1,2.91,2.74v5.46H43V66.48a1.81,1.81,0,0,0-.43-1.38,2.06,2.06,0,0,0-1.42-.54,2.13,2.13,0,0,0-2.1,2.4v4.63h-1.5Z"/><path class="cls-1" d="M48.18,67.84c0,1.66.66,2.9,2.31,2.9a1.75,1.75,0,0,0,1.89-1.67h1.5a2.72,2.72,0,0,1-.69,1.68,3.48,3.48,0,0,1-2.77,1.07c-2.53,0-3.73-1.57-3.73-4.11,0-1.58.32-2.9,1.58-3.78a3.86,3.86,0,0,1,2.19-.59c3.6,0,3.52,3.19,3.49,4.5Zm4.24-1.06c0-.77-.13-2.37-2-2.37a2.16,2.16,0,0,0-2.19,2.37Z"/><path class="cls-1" d="M61.06,71.58a4.32,4.32,0,0,1-.14-1.2,2.6,2.6,0,0,1-2.48,1.46c-1.84,0-2.83-1-2.83-2.37A2.65,2.65,0,0,1,57,67.12a6.27,6.27,0,0,1,2.79-.53c.38,0,.62,0,1.09,0,0-1,0-1.42-.29-1.78a1.84,1.84,0,0,0-1.39-.53c-1.52,0-1.6,1-1.62,1.36h-1.5a2.56,2.56,0,0,1,.56-1.52,3.62,3.62,0,0,1,2.59-.86c1.17,0,2.42.37,2.85,1.18a2.37,2.37,0,0,1,.27,1.23l-.06,3.84a18.7,18.7,0,0,0,.13,2Zm-1-4c-.61,0-2.9,0-2.9,1.63,0,.51.32,1.39,1.66,1.39a1.93,1.93,0,0,0,1.71-.86,3.77,3.77,0,0,0,.38-2.11A6.71,6.71,0,0,0,60,67.63Z"/><path class="cls-1" d="M65,65.18c0-.54,0-1.1-.08-1.63h1.52l0,1.55a2.17,2.17,0,0,1,1.92-1.58,4.79,4.79,0,0,1,1,0V65a1.28,1.28,0,0,0-.29-.06,3.43,3.43,0,0,0-.43,0c-1.78,0-2.19,1.06-2.19,2.43v4.27H65Z"/><path class="cls-1" d="M82.54,63.15a2.2,2.2,0,0,0-2.5-2c-2.79,0-3.28,2.85-3.28,4.77,0,2.18.62,4.53,3.27,4.53a2.5,2.5,0,0,0,1.87-.69,2.28,2.28,0,0,0,.56-1.22h1.76c-.24,2.27-2.34,3.22-4.32,3.22-4.07,0-4.85-3.59-4.85-5.83,0-2.43.94-6.07,5.06-6.07,1.63,0,3.94.66,4.15,3.28Z"/><path class="cls-1" d="M86.15,60h1.5V71.58h-1.5Z"/><path class="cls-1" d="M95.3,71.58a4.32,4.32,0,0,1-.14-1.2,2.6,2.6,0,0,1-2.48,1.46c-1.84,0-2.83-1-2.83-2.37a2.65,2.65,0,0,1,1.41-2.35A6.27,6.27,0,0,1,94,66.59c.38,0,.62,0,1.09,0,0-1,0-1.42-.29-1.78a1.84,1.84,0,0,0-1.39-.53c-1.52,0-1.6,1-1.62,1.36h-1.5a2.57,2.57,0,0,1,.56-1.52,3.62,3.62,0,0,1,2.59-.86c1.17,0,2.42.37,2.85,1.18a2.37,2.37,0,0,1,.27,1.23l-.06,3.84a18.57,18.57,0,0,0,.13,2Zm-1-4c-.61,0-2.9,0-2.9,1.63,0,.51.32,1.39,1.66,1.39a1.93,1.93,0,0,0,1.71-.86,3.78,3.78,0,0,0,.38-2.11A6.73,6.73,0,0,0,94.26,67.63Z"/><path class="cls-1" d="M100.17,69.2c0,.61.3,1.46,1.76,1.46a1.64,1.64,0,0,0,1.41-.51,1.25,1.25,0,0,0,.26-.75c0-.78-.56-.93-1.76-1.2-1.68-.38-3.09-.72-3.09-2.4,0-1.47,1.28-2.43,3.14-2.43,1,0,2.42.29,2.9,1.25a2.55,2.55,0,0,1,.21,1.17h-1.54c0-1.22-1-1.31-1.55-1.31-.22,0-1.63,0-1.63,1.15,0,.74.72.91,1.14,1,2.22.53,2.71.66,3.18,1.1a2,2,0,0,1,.61,1.49,2.43,2.43,0,0,1-1.09,2,4.52,4.52,0,0,1-2.39.54c-1.63,0-3.15-.67-3.14-2.61Z"/><path class="cls-1" d="M108.31,69.2c0,.61.3,1.46,1.76,1.46a1.64,1.64,0,0,0,1.41-.51,1.25,1.25,0,0,0,.26-.75c0-.78-.56-.93-1.76-1.2-1.68-.38-3.09-.72-3.09-2.4,0-1.47,1.28-2.43,3.14-2.43,1,0,2.42.29,2.9,1.25a2.55,2.55,0,0,1,.21,1.17h-1.54c0-1.22-1-1.31-1.55-1.31-.22,0-1.63,0-1.63,1.15,0,.74.72.91,1.14,1,2.22.53,2.71.66,3.18,1.1a2,2,0,0,1,.61,1.49,2.43,2.43,0,0,1-1.09,2,4.52,4.52,0,0,1-2.39.54c-1.63,0-3.15-.67-3.14-2.61Z"/><path class="cls-1" d="M119.89,60h3.87c1.41,0,2.37.08,3.15.93a3.13,3.13,0,0,1,.85,2.24,3.05,3.05,0,0,1-.91,2.26c-.61.61-1.41,1-3.49,1h-1.87v5.14h-1.6Zm1.6,5.07h1.91c1.06,0,2.67-.08,2.67-2s-1.5-1.81-2.34-1.81h-2.24Z"/><path class="cls-1" d="M129.62,60h1.5V71.58h-1.5Z"/><path class="cls-1" d="M138.78,71.58a4.32,4.32,0,0,1-.14-1.2,2.6,2.6,0,0,1-2.48,1.46c-1.84,0-2.83-1-2.83-2.37a2.65,2.65,0,0,1,1.41-2.35,6.27,6.27,0,0,1,2.79-.53c.38,0,.62,0,1.09,0,0-1,0-1.42-.29-1.78a1.84,1.84,0,0,0-1.39-.53c-1.52,0-1.6,1-1.62,1.36h-1.5a2.57,2.57,0,0,1,.56-1.52,3.62,3.62,0,0,1,2.59-.86c1.17,0,2.42.37,2.85,1.18a2.37,2.37,0,0,1,.27,1.23L140,69.57a18.57,18.57,0,0,0,.13,2Zm-1-4c-.61,0-2.9,0-2.9,1.63,0,.51.32,1.39,1.66,1.39a1.93,1.93,0,0,0,1.71-.86,3.78,3.78,0,0,0,.38-2.11A6.72,6.72,0,0,0,137.74,67.63Z"/><path class="cls-1" d="M142.66,64.48l0-.93h1.5l0,1.3a2.62,2.62,0,0,1,2.58-1.46,2.68,2.68,0,0,1,2.91,2.74v5.46h-1.54V66.48a1.81,1.81,0,0,0-.43-1.38,2.06,2.06,0,0,0-1.42-.54,2.13,2.13,0,0,0-2.1,2.4v4.63h-1.5Z"/><path class="cls-1" d="M38.58,80h4.13c1.41,0,2.19.14,2.91.85a2.75,2.75,0,0,1,.82,2.06,2.59,2.59,0,0,1-2,2.61,2.77,2.77,0,0,1,2.3,2.88,3.1,3.1,0,0,1-1.39,2.63,4.47,4.47,0,0,1-2.61.53H38.58Zm1.55,4.88h2.24c.54,0,2.4,0,2.4-1.82s-1.46-1.74-2.34-1.74H40.13Zm0,5.38h2.74a2,2,0,0,0,2.27-2,2,2,0,0,0-2.21-2h-2.8Z"/><path class="cls-1" d="M52.87,91.63l-1.15,3H50.17l1.22-3.07-3.35-8h1.7l2.51,6.34,2.56-6.34h1.63Z"/><path class="cls-1" d="M62.41,80h7.25v1.36H64V85h5.38v1.34H64v3.84h5.78v1.41H62.41Z"/><path class="cls-1" d="M73.13,89.2c0,.61.3,1.46,1.76,1.46a1.64,1.64,0,0,0,1.41-.51,1.26,1.26,0,0,0,.26-.75c0-.78-.56-.93-1.76-1.2-1.68-.38-3.09-.72-3.09-2.4,0-1.47,1.28-2.43,3.14-2.43,1,0,2.42.29,2.9,1.25a2.55,2.55,0,0,1,.21,1.17H76.41c0-1.22-1-1.31-1.55-1.31-.22,0-1.63,0-1.63,1.15,0,.74.72.91,1.14,1,2.23.53,2.71.66,3.19,1.1a2,2,0,0,1,.61,1.49,2.43,2.43,0,0,1-1.09,2,4.51,4.51,0,0,1-2.38.54c-1.63,0-3.15-.67-3.14-2.61Z"/><path class="cls-1" d="M79.54,90l4.29-5.35H79.76V83.55h5.78v1.28l-4.43,5.59h4.43v1.17h-6Z"/><path class="cls-1" d="M86.79,83.52h1.42V81.84l1.49-.48v2.16h1.79v1.1H89.7v4.82c0,.4,0,1.07,1.07,1.07a3.3,3.3,0,0,0,.72-.08V91.6a7.31,7.31,0,0,1-1.25.1c-1.38,0-2-.4-2-1.71V84.62H86.79Z"/><path class="cls-1" d="M94.21,87.84c0,1.66.66,2.9,2.3,2.9a1.75,1.75,0,0,0,1.89-1.66h1.5a2.73,2.73,0,0,1-.69,1.68,3.48,3.48,0,0,1-2.77,1.07c-2.53,0-3.73-1.57-3.73-4.11,0-1.58.32-2.9,1.58-3.78a3.86,3.86,0,0,1,2.19-.59c3.6,0,3.52,3.19,3.49,4.5Zm4.24-1.06c0-.77-.13-2.37-2-2.37a2.16,2.16,0,0,0-2.19,2.37Z"/><path class="cls-1" d="M102.21,85.18c0-.54,0-1.1-.08-1.63h1.52l0,1.55a2.17,2.17,0,0,1,1.92-1.58,4.79,4.79,0,0,1,1,0V85a1.29,1.29,0,0,0-.29-.06,3.45,3.45,0,0,0-.43,0c-1.78,0-2.19,1.06-2.19,2.43v4.27h-1.52Z"/><path class="cls-1" d="M120.63,82.91c-.18-1.07-1-1.81-2.61-1.81a3.33,3.33,0,0,0-2.61,1,5.54,5.54,0,0,0-1.23,3.71,6.06,6.06,0,0,0,1.06,3.63,4,4,0,0,0,3.07,1.14,8.08,8.08,0,0,0,2.51-.37V86.77h-2.64V85.44h4.24v5.7a12.62,12.62,0,0,1-4.11.7,5.5,5.5,0,0,1-4.19-1.44A6.18,6.18,0,0,1,112.5,86c0-1.15.29-3.87,2.48-5.35a6,6,0,0,1,3.22-.82,4.56,4.56,0,0,1,3.41,1.23,2.65,2.65,0,0,1,.77,1.84Z"/><path class="cls-1" d="M130.05,91.58a4.32,4.32,0,0,1-.14-1.2,2.6,2.6,0,0,1-2.48,1.46c-1.84,0-2.83-1-2.83-2.37A2.64,2.64,0,0,1,126,87.12a6.27,6.27,0,0,1,2.79-.53c.38,0,.62,0,1.09,0,0-1,0-1.42-.29-1.78a1.84,1.84,0,0,0-1.39-.53c-1.52,0-1.6,1-1.62,1.36h-1.5a2.57,2.57,0,0,1,.56-1.52,3.62,3.62,0,0,1,2.59-.86c1.17,0,2.42.37,2.85,1.18a2.37,2.37,0,0,1,.27,1.23l-.06,3.84a18.57,18.57,0,0,0,.13,2Zm-1-4c-.61,0-2.9,0-2.9,1.63,0,.51.32,1.39,1.66,1.39a1.93,1.93,0,0,0,1.71-.86,3.78,3.78,0,0,0,.38-2.11A6.63,6.63,0,0,0,129,87.63Z"/><path class="cls-1" d="M133.94,80h1.5V91.58h-1.5Z"/><path class="cls-1" d="M32.66,120H36c1.55,0,3.38,0,4.66,1.5a6.65,6.65,0,0,1,1.42,4.37,5.93,5.93,0,0,1-1.92,4.74c-1.14.94-2.56.94-4.26.94H32.66Zm1.6,10.24h1.57a5.14,5.14,0,0,0,3-.64A4.49,4.49,0,0,0,40.38,126a5.75,5.75,0,0,0-1.12-3.6,3.7,3.7,0,0,0-3.07-1H34.26Z"/><path class="cls-1" d="M47.78,123.34c3.22,0,3.94,2.53,3.94,4.21,0,2.35-1.33,4.31-4.07,4.31s-4-1.84-4-4.19C43.7,125.68,44.63,123.34,47.78,123.34Zm-.1,7.39c1.14,0,2.43-.82,2.43-3.23,0-2-.93-3.06-2.34-3.06-1,0-2.51.61-2.51,3.12C45.27,129.21,46,130.74,47.69,130.74Z"/><path class="cls-1" d="M54.34,123.55l1.94,6.4,2-6.4h2l1.82,6.34,2-6.34h1.55l-2.83,8H61.11L59.22,125l-2.1,6.61H55.35l-2.66-8Z"/><path class="cls-1" d="M67.35,124.48l0-.93h1.5l0,1.3a2.62,2.62,0,0,1,2.58-1.46,2.68,2.68,0,0,1,2.91,2.74v5.46H72.81v-5.11a1.81,1.81,0,0,0-.43-1.38,2.06,2.06,0,0,0-1.42-.54,2.13,2.13,0,0,0-2.1,2.4v4.63h-1.5Z"/><path class="cls-1" d="M77,120h1.5v11.54H77Z"/><path class="cls-1" d="M84.76,123.34c3.22,0,3.94,2.53,3.94,4.21,0,2.35-1.33,4.31-4.07,4.31s-4-1.84-4-4.19C80.68,125.68,81.61,123.34,84.76,123.34Zm-.1,7.39c1.14,0,2.43-.82,2.43-3.23,0-2-.93-3.06-2.34-3.06-1,0-2.51.61-2.51,3.12C82.25,129.21,83,130.74,84.66,130.74Z"/><path class="cls-1" d="M95.83,131.58a4.32,4.32,0,0,1-.14-1.2,2.6,2.6,0,0,1-2.48,1.46c-1.84,0-2.83-1-2.83-2.37a2.64,2.64,0,0,1,1.41-2.35,6.26,6.26,0,0,1,2.79-.53c.38,0,.62,0,1.09,0,0-1,0-1.42-.29-1.78a1.84,1.84,0,0,0-1.39-.53c-1.52,0-1.6,1-1.62,1.36h-1.5a2.56,2.56,0,0,1,.56-1.52,3.63,3.63,0,0,1,2.59-.86c1.17,0,2.42.37,2.85,1.18a2.37,2.37,0,0,1,.27,1.23l-.06,3.84a18.57,18.57,0,0,0,.13,2Zm-1-4c-.61,0-2.9,0-2.9,1.63,0,.51.32,1.39,1.66,1.39a1.93,1.93,0,0,0,1.71-.86,3.78,3.78,0,0,0,.38-2.11A6.64,6.64,0,0,0,94.79,127.63Z"/><path class="cls-1" d="M105.35,120h1.5V130.3c0,.18,0,.86.06,1.28h-1.5l0-1.28a2.29,2.29,0,0,1-.72.85,3.65,3.65,0,0,1-2,.59c-1.07,0-3.46-.56-3.46-4.08,0-3.06,1.74-4.39,3.63-4.39a2.59,2.59,0,0,1,2.5,1.36Zm-.56,5.17a2.18,2.18,0,0,0-1.76-.82c-2.21,0-2.21,2.67-2.21,3.22,0,1.42.37,3.07,2.21,3.07,2.37,0,2.37-2.61,2.37-3.23A3.44,3.44,0,0,0,104.79,125.21Z"/><path class="cls-1" d="M114,120h3.87c1.41,0,2.37.08,3.15.93a3.13,3.13,0,0,1,.85,2.24,3.05,3.05,0,0,1-.91,2.26c-.61.61-1.41,1-3.49,1h-1.87v5.14H114Zm1.6,5.07h1.91c1.06,0,2.67-.08,2.67-2s-1.5-1.81-2.34-1.81h-2.24Z"/><path class="cls-1" d="M123.75,120h3.35c1.55,0,3.38,0,4.66,1.5a6.65,6.65,0,0,1,1.42,4.37,5.93,5.93,0,0,1-1.92,4.74c-1.14.94-2.56.94-4.26.94h-3.25Zm1.6,10.24h1.57a5.14,5.14,0,0,0,3-.64,4.49,4.49,0,0,0,1.52-3.67,5.75,5.75,0,0,0-1.12-3.6,3.7,3.7,0,0,0-3.07-1h-1.92Z"/><path class="cls-1" d="M135.41,120h6.88v1.36H137V125H142v1.34H137v5.25h-1.63Z"/></svg>