<svg id="Layer_1" data-name="Layer 1" xmlns="http://www.w3.org/2000/svg" viewBox="0 0 174 174"><defs><style>.cls-1,.cls-2{fill:#212121;}.cls-2{font-size:16px;font-family:UniversLTStd, Univers LT Std;}</style></defs><title>mtd_down_Artboard 2</title><path class="cls-1" d="M174,174H0V0H131.5V42.5H174ZM1,173H173V43.5H130.5V1H1Z"/><rect class="cls-1" x="31.53" y="152.39" width="110.95" height="0.8"/><path class="cls-1" d="M23.55,61h3.34c1.55,0,3.38,0,4.66,1.5A6.64,6.64,0,0,1,33,66.9a5.92,5.92,0,0,1-1.92,4.74c-1.14.94-2.56.94-4.26.94H23.55Zm1.6,10.24h1.57a5.14,5.14,0,0,0,3-.64A4.49,4.49,0,0,0,31.26,67a5.75,5.75,0,0,0-1.12-3.6,3.7,3.7,0,0,0-3.07-1H25.15Z"/><path class="cls-1" d="M36.12,68.84c0,1.66.66,2.9,2.31,2.9a1.75,1.75,0,0,0,1.89-1.67h1.5a2.72,2.72,0,0,1-.69,1.68,3.48,3.48,0,0,1-2.77,1.07c-2.53,0-3.73-1.57-3.73-4.11,0-1.58.32-2.9,1.58-3.78a3.86,3.86,0,0,1,2.19-.59c3.6,0,3.52,3.19,3.49,4.5Zm4.24-1.06c0-.77-.13-2.37-2-2.37a2.16,2.16,0,0,0-2.19,2.37Z"/><path class="cls-1" d="M43,64.52h1.42V62.84l1.49-.48v2.16h1.79v1.1H45.9v4.82c0,.4,0,1.07,1.07,1.07a3.33,3.33,0,0,0,.72-.08V72.6a7.44,7.44,0,0,1-1.25.1c-1.38,0-2-.4-2-1.71V65.62H43Z"/><path class="cls-1" d="M54.59,72.58a4.32,4.32,0,0,1-.14-1.2A2.6,2.6,0,0,1,52,72.84c-1.84,0-2.83-1-2.83-2.37a2.65,2.65,0,0,1,1.41-2.35,6.27,6.27,0,0,1,2.79-.53c.38,0,.62,0,1.09,0,0-1,0-1.42-.29-1.78a1.84,1.84,0,0,0-1.39-.53c-1.52,0-1.6,1-1.62,1.36h-1.5a2.57,2.57,0,0,1,.56-1.52,3.62,3.62,0,0,1,2.59-.86c1.17,0,2.42.37,2.85,1.18a2.37,2.37,0,0,1,.27,1.23l-.06,3.84a18.57,18.57,0,0,0,.13,2Zm-1-4c-.61,0-2.9,0-2.9,1.63,0,.51.32,1.39,1.66,1.39A1.93,1.93,0,0,0,54,70.79a3.78,3.78,0,0,0,.38-2.11A6.72,6.72,0,0,0,53.55,68.63Z"/><path class="cls-1" d="M58.32,61.06h1.81v1.65H58.32Zm.16,3.49H60v8h-1.5Z"/><path class="cls-1" d="M62.68,61h1.5V72.58h-1.5Z"/><path class="cls-1" d="M67.95,68.84c0,1.66.66,2.9,2.31,2.9a1.75,1.75,0,0,0,1.89-1.67h1.5A2.72,2.72,0,0,1,73,71.75a3.48,3.48,0,0,1-2.77,1.07c-2.53,0-3.73-1.57-3.73-4.11,0-1.58.32-2.9,1.58-3.78a3.86,3.86,0,0,1,2.19-.59c3.6,0,3.52,3.19,3.49,4.5Zm4.24-1.06c0-.77-.13-2.37-2-2.37A2.16,2.16,0,0,0,68,67.78Z"/><path class="cls-1" d="M81.55,61h1.5V71.3c0,.18,0,.86.06,1.28h-1.5l0-1.28a2.3,2.3,0,0,1-.72.85,3.64,3.64,0,0,1-2,.59c-1.07,0-3.46-.56-3.46-4.08,0-3.06,1.74-4.39,3.63-4.39a2.59,2.59,0,0,1,2.5,1.36ZM81,66.21a2.18,2.18,0,0,0-1.76-.82C77,65.4,77,68.07,77,68.61c0,1.42.37,3.07,2.21,3.07,2.37,0,2.37-2.61,2.37-3.23A3.44,3.44,0,0,0,81,66.21Z"/><path class="cls-1" d="M90,61h7.25v1.36H91.61V66H97v1.34H91.61v3.84h5.78v1.41H90Z"/><path class="cls-1" d="M107.26,72.58h-2L103,69.37l-2.27,3.22H99l3.18-4.21-3-3.83h2l2.14,3,2.24-3h1.78l-3.14,3.92Z"/><path class="cls-1" d="M109.69,68.84c0,1.66.66,2.9,2.3,2.9a1.75,1.75,0,0,0,1.89-1.67h1.5a2.72,2.72,0,0,1-.69,1.68,3.48,3.48,0,0,1-2.77,1.07c-2.53,0-3.73-1.57-3.73-4.11,0-1.58.32-2.9,1.58-3.78a3.86,3.86,0,0,1,2.19-.59c3.6,0,3.52,3.19,3.49,4.5Zm4.24-1.06c0-.77-.13-2.37-2-2.37a2.16,2.16,0,0,0-2.19,2.37Z"/><path class="cls-1" d="M117.69,66.18c0-.54,0-1.1-.08-1.63h1.52l0,1.55a2.17,2.17,0,0,1,1.92-1.58,4.79,4.79,0,0,1,1,0V66a1.29,1.29,0,0,0-.29-.06,3.45,3.45,0,0,0-.43,0c-1.78,0-2.19,1.06-2.19,2.43v4.27h-1.52Z"/><path class="cls-1" d="M128.49,67.13a1.59,1.59,0,0,0-1.6-1.68c-2.08,0-2.08,2.42-2.08,3,0,1.65.4,3.19,2,3.19a1.67,1.67,0,0,0,1.75-1.74h1.52a3,3,0,0,1-3.25,2.88,3.62,3.62,0,0,1-2.64-1,4.35,4.35,0,0,1-1-3.07c0-3.35,2-4.34,3.65-4.34a3.26,3.26,0,0,1,2.46,1,2.79,2.79,0,0,1,.67,1.79Z"/><path class="cls-1" d="M131.84,61.06h1.81v1.65h-1.81Zm.16,3.49h1.5v8H132Z"/><path class="cls-1" d="M137.21,70.2c0,.61.3,1.46,1.76,1.46a1.64,1.64,0,0,0,1.41-.51,1.25,1.25,0,0,0,.26-.75c0-.78-.56-.93-1.76-1.2-1.68-.38-3.09-.72-3.09-2.4,0-1.47,1.28-2.43,3.14-2.43,1,0,2.42.29,2.9,1.25a2.55,2.55,0,0,1,.21,1.17h-1.54c0-1.22-1-1.31-1.55-1.31-.22,0-1.63,0-1.63,1.15,0,.74.72.91,1.14,1,2.22.53,2.71.66,3.18,1.1a2,2,0,0,1,.61,1.49,2.43,2.43,0,0,1-1.09,2,4.52,4.52,0,0,1-2.39.54c-1.63,0-3.15-.67-3.14-2.61Z"/><path class="cls-1" d="M145.31,68.84c0,1.66.66,2.9,2.3,2.9a1.75,1.75,0,0,0,1.89-1.67H151a2.72,2.72,0,0,1-.69,1.68,3.48,3.48,0,0,1-2.77,1.07c-2.53,0-3.73-1.57-3.73-4.11,0-1.58.32-2.9,1.58-3.78a3.86,3.86,0,0,1,2.19-.59c3.6,0,3.52,3.19,3.49,4.5Zm4.24-1.06c0-.77-.13-2.37-2-2.37a2.16,2.16,0,0,0-2.19,2.37Z"/><path class="cls-1" d="M45.4,81h3.35c1.55,0,3.38,0,4.66,1.5a6.65,6.65,0,0,1,1.42,4.37,5.93,5.93,0,0,1-1.92,4.74c-1.14.94-2.56.94-4.26.94H45.4ZM47,91.27h1.57a5.14,5.14,0,0,0,3-.64A4.49,4.49,0,0,0,53.12,87,5.75,5.75,0,0,0,52,83.36a3.7,3.7,0,0,0-3.07-1H47Z"/><path class="cls-1" d="M58,88.84c0,1.66.66,2.9,2.3,2.9a1.75,1.75,0,0,0,1.89-1.66h1.5A2.72,2.72,0,0,1,63,91.75a3.48,3.48,0,0,1-2.77,1.07c-2.53,0-3.73-1.57-3.73-4.11,0-1.58.32-2.9,1.58-3.78a3.86,3.86,0,0,1,2.19-.59c3.6,0,3.52,3.19,3.49,4.5Zm4.24-1.06c0-.77-.13-2.37-2-2.37A2.16,2.16,0,0,0,58,87.78Z"/><path class="cls-1" d="M66.92,90.2c0,.61.3,1.46,1.76,1.46a1.64,1.64,0,0,0,1.41-.51,1.26,1.26,0,0,0,.26-.75c0-.78-.56-.93-1.76-1.2-1.68-.38-3.09-.72-3.09-2.4,0-1.47,1.28-2.43,3.14-2.43,1,0,2.42.29,2.9,1.25a2.55,2.55,0,0,1,.21,1.17H70.21c0-1.22-1-1.31-1.55-1.31-.22,0-1.63,0-1.63,1.15,0,.74.72.91,1.14,1,2.23.53,2.71.66,3.19,1.1A2,2,0,0,1,72,90.23a2.43,2.43,0,0,1-1.09,2,4.51,4.51,0,0,1-2.38.54c-1.63,0-3.15-.67-3.14-2.61Z"/><path class="cls-1" d="M78.73,87.13a1.59,1.59,0,0,0-1.6-1.68c-2.08,0-2.08,2.42-2.08,3,0,1.65.4,3.18,2,3.18a1.67,1.67,0,0,0,1.75-1.74h1.52a3,3,0,0,1-3.25,2.88,3.63,3.63,0,0,1-2.64-1,4.36,4.36,0,0,1-1-3.07c0-3.35,2-4.34,3.65-4.34a3.26,3.26,0,0,1,2.46,1,2.78,2.78,0,0,1,.67,1.79Z"/><path class="cls-1" d="M82.25,86.18c0-.54,0-1.1-.08-1.63h1.52l0,1.55a2.17,2.17,0,0,1,1.92-1.58,4.79,4.79,0,0,1,1,0V86a1.27,1.27,0,0,0-.29-.06,3.44,3.44,0,0,0-.43,0c-1.78,0-2.19,1.06-2.19,2.43v4.27H82.25Z"/><path class="cls-1" d="M88.24,81.06H90v1.65H88.24Zm.16,3.49h1.5v8H88.4Z"/><path class="cls-1" d="M92.59,85.86c0-.35,0-.54,0-1.31h1.52l0,1.33a3.12,3.12,0,0,1,2.74-1.46c1.73,0,3.38,1.18,3.38,4.16s-1.74,4.31-3.67,4.31a2.78,2.78,0,0,1-2.46-1.2v4H92.59Zm3.7,5.92A2,2,0,0,0,98,91a4.5,4.5,0,0,0,.66-2.51c0-1.44-.43-2.95-2.21-2.95-2.4,0-2.4,2.54-2.4,3.27C94,89.78,94.17,91.78,96.29,91.78Z"/><path class="cls-1" d="M101.21,84.52h1.42V82.84l1.49-.48v2.16h1.79v1.1h-1.79v4.82c0,.4,0,1.07,1.07,1.07a3.3,3.3,0,0,0,.72-.08V92.6a7.32,7.32,0,0,1-1.25.1c-1.38,0-2-.4-2-1.71V85.62h-1.42Z"/><path class="cls-1" d="M107.55,81.06h1.81v1.65h-1.81Zm.16,3.49h1.5v8h-1.5Z"/><path class="cls-1" d="M115.49,84.34c3.22,0,3.94,2.53,3.94,4.21,0,2.35-1.33,4.31-4.07,4.31s-4-1.84-4-4.19C111.4,86.68,112.33,84.34,115.49,84.34Zm-.1,7.39c1.14,0,2.43-.82,2.43-3.23,0-2-.93-3.06-2.34-3.06-1,0-2.51.61-2.51,3.12C113,90.21,113.68,91.74,115.39,91.74Z"/><path class="cls-1" d="M121.66,85.48l0-.93h1.5l0,1.3a2.62,2.62,0,0,1,2.58-1.46,2.68,2.68,0,0,1,2.91,2.74v5.46h-1.54V87.48a1.81,1.81,0,0,0-.43-1.38,2.06,2.06,0,0,0-1.42-.54,2.13,2.13,0,0,0-2.1,2.4v4.63h-1.5Z"/><text class="cls-2" transform="translate(130 92.58)"> </text><path class="cls-1" d="M6.17,101H10.3c1.41,0,2.19.14,2.91.85a2.75,2.75,0,0,1,.82,2.06,2.59,2.59,0,0,1-2,2.61,2.77,2.77,0,0,1,2.31,2.88A3.1,3.1,0,0,1,13,112.06a4.47,4.47,0,0,1-2.61.53H6.17Zm1.55,4.88H10c.54,0,2.4,0,2.4-1.82s-1.46-1.75-2.34-1.75H7.72Zm0,5.38h2.74a2,2,0,0,0,2.27-2,2,2,0,0,0-2.21-2H7.72Z"/><path class="cls-1" d="M20.46,112.63l-1.15,3H17.76L19,112.55l-3.35-8h1.7l2.51,6.34,2.56-6.34H24Z"/><path class="cls-1" d="M30.3,101h6.88v1.36H31.93V106h4.95v1.34H31.93v5.25H30.3Z"/><path class="cls-1" d="M39.07,106.18c0-.54,0-1.1-.08-1.63h1.52l0,1.55a2.17,2.17,0,0,1,1.92-1.58,4.86,4.86,0,0,1,1,0V106a1.3,1.3,0,0,0-.29-.06,3.25,3.25,0,0,0-.43,0c-1.78,0-2.19,1.06-2.19,2.43v4.27H39.07Z"/><path class="cls-1" d="M45,101.06h1.81v1.65H45Zm.16,3.49h1.5v8h-1.5Z"/><path class="cls-1" d="M50.38,108.84c0,1.66.66,2.9,2.3,2.9a1.75,1.75,0,0,0,1.89-1.66h1.5a2.72,2.72,0,0,1-.69,1.68,3.48,3.48,0,0,1-2.77,1.07c-2.53,0-3.73-1.57-3.73-4.11,0-1.58.32-2.9,1.58-3.78a3.86,3.86,0,0,1,2.19-.59c3.6,0,3.52,3.19,3.49,4.5Zm4.24-1.06c0-.77-.13-2.37-2-2.37a2.16,2.16,0,0,0-2.19,2.37Z"/><path class="cls-1" d="M63.84,101h1.51V111.3c0,.18,0,.86.06,1.28H63.9l0-1.28a2.31,2.31,0,0,1-.72.85,3.65,3.65,0,0,1-2,.59c-1.07,0-3.46-.56-3.46-4.08,0-3.06,1.74-4.39,3.63-4.39a2.59,2.59,0,0,1,2.5,1.36Zm-.56,5.17a2.18,2.18,0,0,0-1.76-.82c-2.21,0-2.21,2.67-2.21,3.22,0,1.42.37,3.07,2.21,3.07,2.37,0,2.37-2.61,2.37-3.23A3.44,3.44,0,0,0,63.28,106.21Z"/><path class="cls-1" d="M68.86,108.84c0,1.66.66,2.9,2.3,2.9a1.75,1.75,0,0,0,1.89-1.66h1.5a2.72,2.72,0,0,1-.69,1.68,3.48,3.48,0,0,1-2.77,1.07c-2.53,0-3.73-1.57-3.73-4.11,0-1.58.32-2.9,1.59-3.78a3.86,3.86,0,0,1,2.19-.59c3.6,0,3.52,3.19,3.49,4.5Zm4.24-1.06c0-.77-.13-2.37-2-2.37a2.16,2.16,0,0,0-2.19,2.37Z"/><path class="cls-1" d="M76.83,106.18c0-.54,0-1.1-.08-1.63h1.52l0,1.55a2.17,2.17,0,0,1,1.92-1.58,4.86,4.86,0,0,1,1,0V106a1.3,1.3,0,0,0-.29-.06,3.23,3.23,0,0,0-.43,0c-1.78,0-2.19,1.06-2.19,2.43v4.27H76.83Z"/><path class="cls-1" d="M82.73,101.06h1.81v1.65H82.73Zm.16,3.49h1.5v8h-1.5Z"/><path class="cls-1" d="M87.12,100.95h1.49v6.88l3-3.28h2L90.19,108l3.6,4.63h-2l-3.22-4.34v4.34H87.12Z"/><path class="cls-1" d="M96,108.84c0,1.66.66,2.9,2.3,2.9a1.75,1.75,0,0,0,1.89-1.66h1.5a2.72,2.72,0,0,1-.69,1.68,3.48,3.48,0,0,1-2.77,1.07c-2.53,0-3.73-1.57-3.73-4.11,0-1.58.32-2.9,1.59-3.78a3.86,3.86,0,0,1,2.19-.59c3.6,0,3.52,3.19,3.49,4.5Zm4.24-1.06c0-.77-.13-2.37-2-2.37a2.16,2.16,0,0,0-2.19,2.37Z"/><path class="cls-1" d="M108.36,101h1.59v10.13h5.38v1.42h-7Z"/><path class="cls-1" d="M122,112.58a4.28,4.28,0,0,1-.14-1.2,2.6,2.6,0,0,1-2.48,1.46c-1.84,0-2.83-1-2.83-2.37a2.65,2.65,0,0,1,1.41-2.35,6.27,6.27,0,0,1,2.79-.53c.38,0,.63,0,1.09,0,0-1,0-1.42-.29-1.78a1.84,1.84,0,0,0-1.39-.53c-1.52,0-1.6,1-1.62,1.36H117a2.56,2.56,0,0,1,.56-1.52,3.62,3.62,0,0,1,2.59-.86c1.17,0,2.42.37,2.85,1.18a2.38,2.38,0,0,1,.27,1.23l-.06,3.84a18.74,18.74,0,0,0,.13,2Zm-1-4c-.61,0-2.9,0-2.9,1.63,0,.51.32,1.39,1.66,1.39a1.93,1.93,0,0,0,1.71-.86,3.79,3.79,0,0,0,.38-2.11A6.67,6.67,0,0,0,120.94,108.63Z"/><path class="cls-1" d="M125.87,105.62l0-1.07h1.52v1.17a2.73,2.73,0,0,1,2.54-1.38,2.55,2.55,0,0,1,2.63,1.5,2.89,2.89,0,0,1,2.71-1.5,2.67,2.67,0,0,1,2.95,2.85v5.39h-1.52v-5.15a2,2,0,0,0-.27-1.22,1.82,1.82,0,0,0-1.54-.71,2.06,2.06,0,0,0-1.71.85,3.32,3.32,0,0,0-.35,1.73v4.5h-1.52v-5.31a1.63,1.63,0,0,0-1.76-1.76,2.17,2.17,0,0,0-1.76.88,2.81,2.81,0,0,0-.35,1.63v4.56h-1.52Z"/><path class="cls-1" d="M140.84,105.86c0-.35,0-.54,0-1.31h1.52l0,1.33a3.12,3.12,0,0,1,2.74-1.46c1.73,0,3.38,1.18,3.38,4.16s-1.74,4.31-3.67,4.31a2.78,2.78,0,0,1-2.46-1.2v4h-1.49Zm3.7,5.92a2,2,0,0,0,1.7-.78,4.5,4.5,0,0,0,.66-2.51c0-1.44-.43-2.95-2.21-2.95-2.4,0-2.4,2.54-2.4,3.27C142.28,109.78,142.43,111.78,144.54,111.78Z"/><path class="cls-1" d="M151.48,108.84c0,1.66.66,2.9,2.3,2.9a1.75,1.75,0,0,0,1.89-1.66h1.5a2.72,2.72,0,0,1-.69,1.68,3.48,3.48,0,0,1-2.77,1.07c-2.53,0-3.73-1.57-3.73-4.11,0-1.58.32-2.9,1.59-3.78a3.86,3.86,0,0,1,2.19-.59c3.6,0,3.52,3.19,3.49,4.5Zm4.24-1.06c0-.77-.13-2.37-2-2.37a2.16,2.16,0,0,0-2.19,2.37Z"/><path class="cls-1" d="M159.45,106.18c0-.54,0-1.1-.08-1.63h1.52l0,1.55a2.17,2.17,0,0,1,1.92-1.58,4.86,4.86,0,0,1,1,0V106a1.33,1.33,0,0,0-.29-.06,3.23,3.23,0,0,0-.43,0c-1.78,0-2.19,1.06-2.19,2.43v4.27h-1.52Z"/><path class="cls-1" d="M164.27,104.52h1.42v-1.68l1.49-.48v2.16H169v1.1h-1.79v4.82c0,.4,0,1.07,1.07,1.07a3.29,3.29,0,0,0,.72-.08v1.17a7.3,7.3,0,0,1-1.25.1c-1.38,0-2-.4-2-1.71v-5.36h-1.42Z"/><path class="cls-1" d="M32.93,139.3h3.33c1.54,0,3.36,0,4.63,1.5a6.6,6.6,0,0,1,1.42,4.34,5.89,5.89,0,0,1-1.91,4.71c-1.13.94-2.55.94-4.23.94H32.93Zm1.59,10.19h1.56a5.11,5.11,0,0,0,3-.64,4.46,4.46,0,0,0,1.51-3.64,5.72,5.72,0,0,0-1.11-3.58,3.68,3.68,0,0,0-3.05-1H34.52Z"/><path class="cls-1" d="M48,142.59c3.2,0,3.92,2.51,3.92,4.19,0,2.34-1.32,4.28-4,4.28s-3.93-1.83-3.93-4.17C43.91,144.92,44.83,142.59,48,142.59Zm-.1,7.35c1.13,0,2.42-.81,2.42-3.21,0-2-.92-3-2.32-3-1,0-2.5.6-2.5,3.1C45.47,148.43,46.17,149.94,47.87,149.94Z"/><path class="cls-1" d="M54.49,142.8l1.93,6.37,2-6.37h2l1.81,6.3,2-6.3h1.54l-2.82,8H61.23l-1.88-6.57-2.08,6.57H55.5l-2.64-8Z"/><path class="cls-1" d="M67.44,143.72l0-.92h1.5l0,1.29a2.61,2.61,0,0,1,2.56-1.45,2.66,2.66,0,0,1,2.9,2.72v5.43H72.86v-5.08a1.8,1.8,0,0,0-.43-1.37A2.05,2.05,0,0,0,71,143.8a2.12,2.12,0,0,0-2.09,2.39v4.6h-1.5Z"/><path class="cls-1" d="M77,139.31h1.5v11.47H77Z"/><path class="cls-1" d="M84.75,142.59c3.2,0,3.92,2.51,3.92,4.19,0,2.34-1.32,4.28-4,4.28s-3.93-1.83-3.93-4.17C80.7,144.92,81.62,142.59,84.75,142.59Zm-.1,7.35c1.13,0,2.42-.81,2.42-3.21,0-2-.92-3-2.32-3-1,0-2.5.6-2.5,3.1C82.26,148.43,83,149.94,84.66,149.94Z"/><path class="cls-1" d="M95.77,150.79a4.31,4.31,0,0,1-.14-1.19A2.58,2.58,0,0,1,93.16,151c-1.83,0-2.82-1-2.82-2.36a2.63,2.63,0,0,1,1.4-2.34,6.23,6.23,0,0,1,2.77-.53c.38,0,.62,0,1.08,0,0-1,0-1.42-.29-1.77a1.83,1.83,0,0,0-1.38-.52c-1.51,0-1.59,1-1.61,1.35h-1.5a2.54,2.54,0,0,1,.56-1.51,3.6,3.6,0,0,1,2.58-.86,3.22,3.22,0,0,1,2.83,1.18,2.36,2.36,0,0,1,.27,1.23L97,148.78a18.53,18.53,0,0,0,.13,2Zm-1-3.93c-.61,0-2.88,0-2.88,1.62,0,.51.32,1.38,1.66,1.38a1.92,1.92,0,0,0,1.7-.86,3.76,3.76,0,0,0,.38-2.1A6.55,6.55,0,0,0,94.74,146.86Z"/><path class="cls-1" d="M105.24,139.31h1.5v10.2c0,.18,0,.86.06,1.27h-1.5l0-1.27a2.28,2.28,0,0,1-.72.84,3.63,3.63,0,0,1-2,.59c-1.07,0-3.44-.56-3.44-4.06,0-3,1.73-4.36,3.61-4.36a2.57,2.57,0,0,1,2.48,1.35Zm-.56,5.14a2.17,2.17,0,0,0-1.75-.81c-2.2,0-2.2,2.66-2.2,3.2,0,1.42.37,3.06,2.2,3.06,2.36,0,2.36-2.59,2.36-3.21A3.42,3.42,0,0,0,104.68,144.45Z"/><path class="cls-1" d="M113.85,139.3h3.85c1.4,0,2.36.08,3.13.92a3.11,3.11,0,0,1,.84,2.23,3,3,0,0,1-.91,2.24c-.6.61-1.4,1-3.47,1h-1.86v5.11h-1.59Zm1.59,5h1.89c1.05,0,2.66-.08,2.66-2s-1.5-1.8-2.32-1.8h-2.23Z"/><path class="cls-1" d="M123.55,139.3h3.33c1.54,0,3.36,0,4.63,1.5a6.61,6.61,0,0,1,1.42,4.34,5.89,5.89,0,0,1-1.91,4.71c-1.13.94-2.55.94-4.23.94h-3.23Zm1.59,10.19h1.56a5.11,5.11,0,0,0,3-.64,4.46,4.46,0,0,0,1.51-3.64,5.72,5.72,0,0,0-1.11-3.58,3.68,3.68,0,0,0-3.06-1h-1.91Z"/><path class="cls-1" d="M135.15,139.3H142v1.35h-5.22v3.58h4.92v1.34h-4.92v5.22h-1.62Z"/></svg>