<svg id="Layer_1" data-name="Layer 1" xmlns="http://www.w3.org/2000/svg" viewBox="0 0 174 174"><defs><style>.cls-1{fill:#212121;}</style></defs><title>mtd_down_Artboard 4</title><path class="cls-1" d="M174,174H0V0H131.5V42.5H174ZM1,173H173V43.5H130.5V1H1Z"/><rect class="cls-1" x="31.25" y="133.18" width="111.49" height="0.8"/><path class="cls-1" d="M41.61,60h2.83l3.27,9.52L51,60h2.64V71.58H52.12V61.18l-3.79,10.4H46.81L43.16,61.24V71.58H41.61Z"/><path class="cls-1" d="M60.25,71.63l-1.15,3H57.54l1.22-3.07-3.35-8h1.7l2.51,6.34,2.56-6.34h1.63Z"/><path class="cls-1" d="M69.88,60h3.87c1.41,0,2.37.08,3.15.93a3.13,3.13,0,0,1,.85,2.24,3.05,3.05,0,0,1-.91,2.26c-.61.61-1.41,1-3.49,1H71.48v5.14h-1.6Zm1.6,5.07h1.9c1.06,0,2.67-.08,2.67-2s-1.5-1.81-2.34-1.81H71.48Z"/><path class="cls-1" d="M80.52,67.84c0,1.67.66,2.9,2.31,2.9a1.75,1.75,0,0,0,1.89-1.67h1.5a2.73,2.73,0,0,1-.69,1.68,3.48,3.48,0,0,1-2.77,1.07c-2.53,0-3.73-1.57-3.73-4.11,0-1.58.32-2.9,1.58-3.78a3.86,3.86,0,0,1,2.19-.59c3.6,0,3.52,3.18,3.49,4.5Zm4.24-1.06c0-.77-.13-2.37-2-2.37a2.16,2.16,0,0,0-2.19,2.37Z"/><path class="cls-1" d="M88.53,65.18c0-.54,0-1.1-.08-1.63H90l0,1.55a2.17,2.17,0,0,1,1.92-1.58,4.85,4.85,0,0,1,1,0V65a1.36,1.36,0,0,0-.29-.06,3.45,3.45,0,0,0-.43,0c-1.78,0-2.19,1.06-2.19,2.43v4.27H88.53Z"/><path class="cls-1" d="M95.49,69.2c0,.61.3,1.46,1.76,1.46a1.65,1.65,0,0,0,1.41-.51,1.26,1.26,0,0,0,.26-.75c0-.78-.56-.93-1.76-1.2-1.68-.38-3.09-.72-3.09-2.4,0-1.47,1.28-2.43,3.14-2.43,1,0,2.42.29,2.9,1.25a2.54,2.54,0,0,1,.21,1.17H98.78c0-1.22-1-1.31-1.55-1.31-.22,0-1.63,0-1.63,1.15,0,.74.72.91,1.14,1,2.22.53,2.71.66,3.19,1.1a2,2,0,0,1,.61,1.49,2.44,2.44,0,0,1-1.09,2,4.52,4.52,0,0,1-2.38.54c-1.63,0-3.15-.67-3.14-2.61Z"/><path class="cls-1" d="M106.07,63.34c3.22,0,3.94,2.53,3.94,4.21,0,2.35-1.33,4.3-4.07,4.3s-4-1.84-4-4.19C102,65.68,102.92,63.34,106.07,63.34Zm-.1,7.4c1.14,0,2.43-.82,2.43-3.23,0-2-.93-3.06-2.34-3.06-1,0-2.51.61-2.51,3.12C103.56,69.21,104.26,70.74,106,70.74Z"/><path class="cls-1" d="M112.36,64.48l0-.93h1.5l0,1.3a2.62,2.62,0,0,1,2.58-1.46,2.68,2.68,0,0,1,2.91,2.74v5.46h-1.54V66.48a1.81,1.81,0,0,0-.43-1.38,2.06,2.06,0,0,0-1.42-.54,2.14,2.14,0,0,0-2.1,2.4v4.63h-1.5Z"/><path class="cls-1" d="M126.94,71.58a4.32,4.32,0,0,1-.14-1.2,2.6,2.6,0,0,1-2.48,1.46c-1.84,0-2.83-1-2.83-2.37a2.64,2.64,0,0,1,1.41-2.35,6.28,6.28,0,0,1,2.79-.53c.38,0,.62,0,1.09,0,0-1,0-1.43-.29-1.78a1.84,1.84,0,0,0-1.39-.53c-1.52,0-1.6,1-1.62,1.36H122a2.56,2.56,0,0,1,.56-1.52,3.62,3.62,0,0,1,2.59-.86c1.17,0,2.42.37,2.85,1.18a2.37,2.37,0,0,1,.27,1.23l-.06,3.84a18.57,18.57,0,0,0,.13,2Zm-1-4c-.61,0-2.9,0-2.9,1.63,0,.51.32,1.39,1.66,1.39a1.93,1.93,0,0,0,1.71-.87,3.78,3.78,0,0,0,.38-2.11A6.84,6.84,0,0,0,125.9,67.63Z"/><path class="cls-1" d="M130.92,60h1.5V71.58h-1.5Z"/><path class="cls-1" d="M37.87,91.58V81.39H34V80h9.33v1.36H39.46v10.2Z"/><path class="cls-1" d="M45.44,87.84c0,1.66.66,2.9,2.31,2.9a1.75,1.75,0,0,0,1.89-1.66h1.5a2.73,2.73,0,0,1-.69,1.68,3.48,3.48,0,0,1-2.77,1.07c-2.53,0-3.73-1.57-3.73-4.11,0-1.58.32-2.9,1.58-3.78a3.86,3.86,0,0,1,2.19-.59c3.6,0,3.52,3.18,3.49,4.5Zm4.24-1.06c0-.77-.13-2.37-2-2.37a2.16,2.16,0,0,0-2.19,2.37Z"/><path class="cls-1" d="M58.27,91.58a4.35,4.35,0,0,1-.14-1.2,2.6,2.6,0,0,1-2.48,1.46c-1.84,0-2.83-1-2.83-2.37a2.64,2.64,0,0,1,1.41-2.35A6.28,6.28,0,0,1,57,86.59c.38,0,.62,0,1.09,0,0-1,0-1.43-.29-1.78a1.84,1.84,0,0,0-1.39-.53c-1.52,0-1.6,1-1.62,1.36h-1.5a2.56,2.56,0,0,1,.56-1.52,3.62,3.62,0,0,1,2.59-.86c1.17,0,2.42.37,2.85,1.18a2.37,2.37,0,0,1,.27,1.23l-.06,3.84a18.66,18.66,0,0,0,.13,2Zm-1-4c-.61,0-2.9,0-2.9,1.63,0,.51.32,1.39,1.67,1.39a1.92,1.92,0,0,0,1.71-.86,3.76,3.76,0,0,0,.38-2.11A6.62,6.62,0,0,0,57.23,87.63Z"/><path class="cls-1" d="M66.8,86.13a1.59,1.59,0,0,0-1.6-1.68c-2.08,0-2.08,2.42-2.08,3,0,1.65.4,3.18,2,3.18a1.67,1.67,0,0,0,1.74-1.74h1.52a3,3,0,0,1-3.25,2.88,3.62,3.62,0,0,1-2.64-1,4.35,4.35,0,0,1-1-3.07c0-3.35,2-4.34,3.65-4.34a3.26,3.26,0,0,1,2.46,1,2.79,2.79,0,0,1,.67,1.79Z"/><path class="cls-1" d="M70.17,80H71.7v4.69A2.94,2.94,0,0,1,74.3,83.4a2.76,2.76,0,0,1,2.53,1.28,3.87,3.87,0,0,1,.27,1.87v5H75.57V86.83c0-.72,0-2.27-1.73-2.27A2.08,2.08,0,0,0,72,85.63a3.83,3.83,0,0,0-.26,1.7v4.26H70.17Z"/><path class="cls-1" d="M79.76,80.06h1.81v1.65H79.76Zm.16,3.49h1.5v8h-1.5Z"/><path class="cls-1" d="M84.35,84.48l0-.93h1.5l0,1.3a2.62,2.62,0,0,1,2.58-1.46,2.68,2.68,0,0,1,2.91,2.74v5.46H89.81V86.48a1.81,1.81,0,0,0-.43-1.38A2.06,2.06,0,0,0,88,84.56a2.14,2.14,0,0,0-2.1,2.4v4.63h-1.5Z"/><path class="cls-1" d="M95.47,92.21c.06.9.45,1.57,1.87,1.57,2.1,0,2.13-1.52,2.13-3.7a2.78,2.78,0,0,1-2.64,1.36,3.09,3.09,0,0,1-2.46-1,4.5,4.5,0,0,1-.91-3c0-2.72,1.6-4,3.57-4a2.8,2.8,0,0,1,2.53,1.22l0-1.1H101L101,85l0,5c0,1.94-.06,2.72-.38,3.33-.67,1.28-2.24,1.44-3.35,1.44-3.22,0-3.31-1.5-3.38-2.59ZM99,89.52a3.22,3.22,0,0,0,.54-2.31,2.67,2.67,0,0,0-.62-2,2.37,2.37,0,0,0-1.73-.7c-1.91,0-2.16,1.92-2.16,2.94,0,1.23.37,2.87,2.21,2.87A2,2,0,0,0,99,89.52Z"/><path class="cls-1" d="M108.19,80H111l3.27,9.52L117.63,80h2.64V91.58h-1.57V81.18l-3.79,10.4h-1.52l-3.65-10.34V91.58h-1.55Z"/><path class="cls-1" d="M128.11,91.58a4.32,4.32,0,0,1-.14-1.2,2.6,2.6,0,0,1-2.48,1.46c-1.84,0-2.83-1-2.83-2.37a2.64,2.64,0,0,1,1.41-2.35,6.28,6.28,0,0,1,2.79-.53c.38,0,.62,0,1.09,0,0-1,0-1.43-.29-1.78a1.84,1.84,0,0,0-1.39-.53c-1.52,0-1.6,1-1.62,1.36h-1.5a2.56,2.56,0,0,1,.56-1.52,3.62,3.62,0,0,1,2.59-.86c1.17,0,2.42.37,2.85,1.18a2.37,2.37,0,0,1,.27,1.23l-.06,3.84a18.57,18.57,0,0,0,.13,2Zm-1-4c-.61,0-2.9,0-2.9,1.63,0,.51.32,1.39,1.66,1.39a1.93,1.93,0,0,0,1.71-.86,3.78,3.78,0,0,0,.38-2.11A6.64,6.64,0,0,0,127.07,87.63Z"/><path class="cls-1" d="M132,84.86c0-.35,0-.54,0-1.31h1.52l0,1.33a3.12,3.12,0,0,1,2.74-1.46c1.73,0,3.38,1.18,3.38,4.16s-1.74,4.31-3.67,4.31a2.78,2.78,0,0,1-2.46-1.2v4H132Zm3.7,5.92a2,2,0,0,0,1.7-.78,4.5,4.5,0,0,0,.66-2.51c0-1.44-.43-2.95-2.21-2.95-2.4,0-2.4,2.54-2.4,3.27C133.45,88.78,133.6,90.78,135.71,90.78Z"/><path class="cls-1" d="M32.66,120H36c1.55,0,3.38,0,4.66,1.5a6.65,6.65,0,0,1,1.42,4.37,5.93,5.93,0,0,1-1.92,4.74c-1.14.94-2.56.94-4.26.94H32.66Zm1.6,10.24h1.57a5.14,5.14,0,0,0,3-.64A4.49,4.49,0,0,0,40.38,126a5.75,5.75,0,0,0-1.12-3.6,3.7,3.7,0,0,0-3.07-1H34.26Z"/><path class="cls-1" d="M47.78,123.34c3.22,0,3.94,2.53,3.94,4.21,0,2.35-1.33,4.31-4.07,4.31s-4-1.84-4-4.19C43.7,125.68,44.63,123.34,47.78,123.34Zm-.1,7.39c1.14,0,2.43-.82,2.43-3.23,0-2-.93-3.06-2.34-3.06-1,0-2.51.61-2.51,3.12C45.27,129.21,46,130.74,47.69,130.74Z"/><path class="cls-1" d="M54.34,123.55l1.94,6.4,2-6.4h2l1.83,6.34,2-6.34h1.55l-2.83,8H61.11L59.22,125l-2.1,6.61H55.35l-2.66-8Z"/><path class="cls-1" d="M67.35,124.48l0-.93h1.5l0,1.3a2.62,2.62,0,0,1,2.58-1.46,2.68,2.68,0,0,1,2.91,2.74v5.46H72.81v-5.11a1.81,1.81,0,0,0-.43-1.38,2.06,2.06,0,0,0-1.42-.54,2.13,2.13,0,0,0-2.1,2.4v4.63h-1.5Z"/><path class="cls-1" d="M77,120h1.51v11.54H77Z"/><path class="cls-1" d="M84.76,123.34c3.22,0,3.94,2.53,3.94,4.21,0,2.35-1.33,4.31-4.07,4.31s-4-1.84-4-4.19C80.68,125.68,81.61,123.34,84.76,123.34Zm-.1,7.39c1.14,0,2.43-.82,2.43-3.23,0-2-.93-3.06-2.34-3.06-1,0-2.51.61-2.51,3.12C82.25,129.21,83,130.74,84.66,130.74Z"/><path class="cls-1" d="M95.83,131.58a4.32,4.32,0,0,1-.14-1.2,2.6,2.6,0,0,1-2.48,1.46c-1.84,0-2.83-1-2.83-2.37a2.64,2.64,0,0,1,1.41-2.35,6.26,6.26,0,0,1,2.79-.53c.38,0,.62,0,1.09,0,0-1,0-1.42-.29-1.78a1.84,1.84,0,0,0-1.39-.53c-1.52,0-1.6,1-1.62,1.36h-1.5a2.56,2.56,0,0,1,.56-1.52,3.63,3.63,0,0,1,2.59-.86c1.17,0,2.42.37,2.85,1.18a2.37,2.37,0,0,1,.27,1.23l-.06,3.84a18.57,18.57,0,0,0,.13,2Zm-1-4c-.61,0-2.9,0-2.9,1.63,0,.51.32,1.39,1.66,1.39a1.93,1.93,0,0,0,1.71-.86,3.78,3.78,0,0,0,.38-2.11A6.64,6.64,0,0,0,94.79,127.63Z"/><path class="cls-1" d="M105.35,120h1.5V130.3c0,.18,0,.86.06,1.28h-1.5l0-1.28a2.29,2.29,0,0,1-.72.85,3.65,3.65,0,0,1-2,.59c-1.07,0-3.46-.56-3.46-4.08,0-3.06,1.74-4.39,3.63-4.39a2.59,2.59,0,0,1,2.5,1.36Zm-.56,5.17a2.18,2.18,0,0,0-1.76-.82c-2.21,0-2.21,2.67-2.21,3.22,0,1.42.37,3.07,2.21,3.07,2.37,0,2.37-2.61,2.37-3.23A3.44,3.44,0,0,0,104.79,125.21Z"/><path class="cls-1" d="M114,120h3.87c1.41,0,2.37.08,3.15.93a3.13,3.13,0,0,1,.85,2.24,3.05,3.05,0,0,1-.91,2.26c-.61.61-1.41,1-3.49,1h-1.87v5.14H114Zm1.6,5.07h1.91c1.06,0,2.67-.08,2.67-2s-1.5-1.81-2.34-1.81h-2.24Z"/><path class="cls-1" d="M123.75,120h3.35c1.55,0,3.38,0,4.66,1.5a6.65,6.65,0,0,1,1.42,4.37,5.93,5.93,0,0,1-1.92,4.74c-1.14.94-2.56.94-4.26.94h-3.25Zm1.6,10.24h1.57a5.14,5.14,0,0,0,3-.64,4.49,4.49,0,0,0,1.52-3.67,5.75,5.75,0,0,0-1.12-3.6,3.7,3.7,0,0,0-3.07-1h-1.92Z"/><path class="cls-1" d="M135.41,120h6.88v1.36H137V125H142v1.34H137v5.25h-1.63Z"/></svg>