<svg id="Layer_1" data-name="Layer 1" xmlns="http://www.w3.org/2000/svg" viewBox="0 0 174 174"><defs><style>.cls-1,.cls-2{fill:#212121;}.cls-2{font-size:16px;font-family:UniversLTStd, Univers LT Std;}</style></defs><title>mtd_down_Artboard 3</title><path class="cls-1" d="M174,174H0V0H131.5V42.5H174ZM1,173H173V43.5H130.5V1H1Z"/><rect class="cls-1" x="31.53" y="152.39" width="110.95" height="0.8"/><path class="cls-1" d="M27.59,61h3.35c1.55,0,3.38,0,4.66,1.5A6.65,6.65,0,0,1,37,66.9a5.93,5.93,0,0,1-1.92,4.74c-1.14.94-2.56.94-4.26.94H27.59Zm1.6,10.24h1.57a5.14,5.14,0,0,0,3-.64A4.48,4.48,0,0,0,35.3,67a5.75,5.75,0,0,0-1.12-3.6,3.7,3.7,0,0,0-3.07-1H29.19Z"/><path class="cls-1" d="M42.71,64.34c3.22,0,3.94,2.53,3.94,4.21,0,2.35-1.33,4.3-4.07,4.3s-4-1.84-4-4.19C38.63,66.68,39.56,64.34,42.71,64.34Zm-.1,7.4c1.14,0,2.43-.82,2.43-3.23,0-2-.93-3.06-2.34-3.06-1,0-2.51.61-2.51,3.12C40.2,70.21,40.9,71.74,42.61,71.74Z"/><path class="cls-1" d="M56.66,68l-4.51-7h2l3.41,5.67L61,61h1.79l-4.51,7.09v4.47H56.66Z"/><path class="cls-1" d="M66.29,64.34c3.22,0,3.94,2.53,3.94,4.21,0,2.35-1.33,4.3-4.07,4.3s-4-1.84-4-4.19C62.21,66.68,63.14,64.34,66.29,64.34Zm-.1,7.4c1.14,0,2.43-.82,2.43-3.23,0-2-.93-3.06-2.34-3.06-1,0-2.51.61-2.51,3.12C63.78,70.21,64.48,71.74,66.2,71.74Z"/><path class="cls-1" d="M73.88,64.55v5.17c0,.78.18,1.78,1.71,1.78a2.17,2.17,0,0,0,1.89-.9,2.6,2.6,0,0,0,.34-1.5V64.55h1.55v6.53c0,.16,0,1.06,0,1.5H77.85l0-1.38a2.52,2.52,0,0,1-2.56,1.46,2.57,2.57,0,0,1-2.91-2.72V64.55Z"/><path class="cls-1" d="M88.32,61v5h5.49V61h1.6V72.58h-1.6V67.37H88.32v5.22h-1.6V61Z"/><path class="cls-1" d="M103.11,72.58a4.32,4.32,0,0,1-.14-1.2,2.6,2.6,0,0,1-2.48,1.46c-1.84,0-2.83-1-2.83-2.37a2.64,2.64,0,0,1,1.41-2.35,6.28,6.28,0,0,1,2.79-.53c.38,0,.62,0,1.09,0,0-1,0-1.43-.29-1.78a1.84,1.84,0,0,0-1.39-.53c-1.52,0-1.6,1-1.62,1.36h-1.5a2.56,2.56,0,0,1,.56-1.52,3.62,3.62,0,0,1,2.59-.86c1.17,0,2.42.37,2.85,1.18a2.37,2.37,0,0,1,.27,1.23l-.06,3.84a18.57,18.57,0,0,0,.13,2Zm-1-4c-.61,0-2.9,0-2.9,1.63,0,.51.32,1.39,1.66,1.39a1.93,1.93,0,0,0,1.71-.87,3.78,3.78,0,0,0,.38-2.11A6.84,6.84,0,0,0,102.07,68.63Z"/><path class="cls-1" d="M105.75,64.55h1.68L110,70.92l2.5-6.37h1.67l-3.52,8h-1.52Z"/><path class="cls-1" d="M116.53,68.84c0,1.67.66,2.9,2.3,2.9a1.75,1.75,0,0,0,1.89-1.67h1.5a2.73,2.73,0,0,1-.69,1.68,3.48,3.48,0,0,1-2.77,1.07c-2.53,0-3.73-1.57-3.73-4.11,0-1.58.32-2.9,1.58-3.78a3.86,3.86,0,0,1,2.19-.59c3.6,0,3.52,3.18,3.49,4.5Zm4.24-1.06c0-.77-.13-2.37-2-2.37a2.16,2.16,0,0,0-2.19,2.37Z"/><path class="cls-1" d="M132.56,61h1.71L139,72.58h-1.74l-1.25-3H130.6l-1.25,3H127.7Zm-1.46,7.25h4.37l-2.13-5.67Z"/><path class="cls-1" d="M140.63,61h1.5V72.58h-1.5Z"/><path class="cls-1" d="M144.83,61h1.5V72.58h-1.5Z"/><text class="cls-2" transform="translate(152.27 72.58)"> </text><path class="cls-1" d="M10.93,88,6.42,81h2l3.41,5.67L15.27,81h1.79l-4.51,7.09v4.47H10.93Z"/><path class="cls-1" d="M20.56,84.34c3.22,0,3.94,2.53,3.94,4.21,0,2.35-1.33,4.31-4.07,4.31s-4-1.84-4-4.19C16.48,86.68,17.41,84.34,20.56,84.34Zm-.1,7.39c1.14,0,2.43-.82,2.43-3.23,0-2-.93-3.06-2.34-3.06-1,0-2.51.61-2.51,3.12C18.05,90.21,18.76,91.74,20.47,91.74Z"/><path class="cls-1" d="M28.15,84.55v5.17c0,.78.18,1.78,1.71,1.78a2.17,2.17,0,0,0,1.89-.9,2.6,2.6,0,0,0,.34-1.5V84.55h1.55v6.53c0,.16,0,1.06,0,1.5H32.12l0-1.38a2.52,2.52,0,0,1-2.56,1.46,2.57,2.57,0,0,1-2.91-2.72V84.55Z"/><path class="cls-1" d="M36.39,86.18c0-.54,0-1.1-.08-1.63h1.52l0,1.55a2.17,2.17,0,0,1,1.92-1.58,4.86,4.86,0,0,1,1,0V86a1.37,1.37,0,0,0-.29-.06,3.43,3.43,0,0,0-.43,0c-1.78,0-2.19,1.06-2.19,2.43v4.27H36.39Z"/><path class="cls-1" d="M47,81h3.35c1.55,0,3.38,0,4.66,1.5a6.65,6.65,0,0,1,1.42,4.37,5.93,5.93,0,0,1-1.92,4.74c-1.14.94-2.56.94-4.26.94H47Zm1.6,10.24h1.57a5.14,5.14,0,0,0,3-.64A4.49,4.49,0,0,0,54.69,87a5.75,5.75,0,0,0-1.12-3.6,3.7,3.7,0,0,0-3.07-1H48.58Z"/><path class="cls-1" d="M60,84.55v5.17c0,.78.18,1.78,1.71,1.78a2.17,2.17,0,0,0,1.89-.9,2.6,2.6,0,0,0,.34-1.5V84.55h1.55v6.53c0,.16,0,1.06,0,1.5H64l0-1.38a2.52,2.52,0,0,1-2.56,1.46,2.57,2.57,0,0,1-2.91-2.72V84.55Z"/><path class="cls-1" d="M72.95,87.13a1.59,1.59,0,0,0-1.6-1.68c-2.08,0-2.08,2.42-2.08,3,0,1.65.4,3.18,2,3.18A1.67,1.67,0,0,0,73,89.91h1.52a3,3,0,0,1-3.25,2.88,3.62,3.62,0,0,1-2.64-1,4.35,4.35,0,0,1-1-3.07c0-3.35,2-4.34,3.65-4.34a3.26,3.26,0,0,1,2.47,1,2.79,2.79,0,0,1,.67,1.79Z"/><path class="cls-1" d="M76.4,80.95h1.49v6.88l3-3.28h2L79.48,88l3.6,4.63h-2l-3.22-4.34v4.34H76.4Z"/><path class="cls-1" d="M85.44,90.2c0,.61.3,1.46,1.76,1.46a1.64,1.64,0,0,0,1.41-.51,1.26,1.26,0,0,0,.26-.75c0-.78-.56-.93-1.76-1.2-1.68-.38-3.09-.72-3.09-2.4,0-1.47,1.28-2.43,3.14-2.43,1,0,2.42.29,2.9,1.25a2.54,2.54,0,0,1,.21,1.17H88.72c0-1.22-1-1.31-1.55-1.31-.22,0-1.63,0-1.63,1.15,0,.74.72.91,1.14,1,2.22.53,2.71.66,3.19,1.1a2,2,0,0,1,.61,1.49,2.43,2.43,0,0,1-1.09,2,4.51,4.51,0,0,1-2.38.54c-1.63,0-3.15-.67-3.14-2.61Z"/><path class="cls-1" d="M96.88,81.06h1.81v1.65H96.88ZM97,84.55h1.5v8H97Z"/><path class="cls-1" d="M101.27,85.48l0-.93h1.5l0,1.3a2.62,2.62,0,0,1,2.58-1.46,2.68,2.68,0,0,1,2.91,2.74v5.46h-1.54V87.48a1.81,1.81,0,0,0-.43-1.38,2.06,2.06,0,0,0-1.42-.54,2.14,2.14,0,0,0-2.1,2.4v4.63h-1.5Z"/><path class="cls-1" d="M120.34,92.58a4.32,4.32,0,0,1-.14-1.2,2.6,2.6,0,0,1-2.48,1.46c-1.84,0-2.83-1-2.83-2.37a2.64,2.64,0,0,1,1.41-2.35,6.26,6.26,0,0,1,2.79-.53c.38,0,.62,0,1.09,0,0-1,0-1.42-.29-1.78a1.84,1.84,0,0,0-1.39-.53c-1.52,0-1.6,1-1.62,1.36h-1.5a2.56,2.56,0,0,1,.56-1.52,3.62,3.62,0,0,1,2.59-.86c1.17,0,2.42.37,2.85,1.18a2.37,2.37,0,0,1,.27,1.23l-.06,3.84a18.57,18.57,0,0,0,.13,2Zm-1-4c-.61,0-2.9,0-2.9,1.63,0,.51.32,1.39,1.66,1.39a1.93,1.93,0,0,0,1.71-.86,3.78,3.78,0,0,0,.38-2.11A6.64,6.64,0,0,0,119.3,88.63Z"/><path class="cls-1" d="M128.75,81h4.13a5.13,5.13,0,0,1,2.66.54,2.71,2.71,0,0,1,1.28,2.35,2.8,2.8,0,0,1-2.18,2.8c1.1.29,1.6.78,1.76,2.22a15.39,15.39,0,0,0,.72,3.63h-1.71a20,20,0,0,1-.53-3.06c-.19-1.68-.59-2.16-2.53-2.16h-2v5.22h-1.58Zm1.55,5h2.53a3.73,3.73,0,0,0,1.52-.26,1.64,1.64,0,0,0,.78-1.5c0-1.87-1.66-1.87-2.3-1.87h-2.53Z"/><path class="cls-1" d="M142.8,84.34c3.22,0,3.94,2.53,3.94,4.21,0,2.35-1.33,4.31-4.07,4.31s-4-1.84-4-4.19C138.72,86.68,139.65,84.34,142.8,84.34Zm-.1,7.39c1.14,0,2.43-.82,2.43-3.23,0-2-.93-3.06-2.34-3.06-1,0-2.51.61-2.51,3.12C140.29,90.21,141,91.74,142.71,91.74Z"/><path class="cls-1" d="M149.36,84.55,151.3,91l2-6.4h2l1.82,6.34,2-6.34h1.55l-2.83,8h-1.73L154.24,86l-2.1,6.61h-1.78l-2.66-8Z"/><path class="cls-1" d="M160.91,81.14a7.1,7.1,0,0,1,2.27-.34,3.94,3.94,0,0,1,3,1,2.78,2.78,0,0,1,.72,1.86c0,1.26-.61,1.86-1.94,3.2-.08.08-.9.9-.9.91a.75.75,0,0,0-.13.5V90h-1.34v-1.7c0-.64,0-.74.83-1.62,1.23-1.3,1.81-1.92,1.81-2.85,0-1.63-1.74-1.67-2.16-1.67a5.6,5.6,0,0,0-2.16.45ZM162.47,91h1.66v1.63h-1.66Z"/><text class="cls-2" transform="translate(167.7 92.58)"> </text><path class="cls-1" d="M10.63,101h4.13c1.41,0,2.19.14,2.91.85a2.75,2.75,0,0,1,.82,2.06,2.59,2.59,0,0,1-2,2.61,2.77,2.77,0,0,1,2.3,2.88,3.1,3.1,0,0,1-1.39,2.63,4.47,4.47,0,0,1-2.61.53H10.63Zm1.55,4.88h2.24c.54,0,2.4,0,2.4-1.82s-1.46-1.75-2.34-1.75H12.18Zm0,5.38h2.74a2,2,0,0,0,2.27-2,2,2,0,0,0-2.21-2h-2.8Z"/><path class="cls-1" d="M24.92,112.63l-1.15,3H22.21l1.22-3.07-3.35-8h1.7l2.51,6.34,2.56-6.34h1.63Z"/><path class="cls-1" d="M34.72,101h1.58v5.06L41.13,101h2.19l-5.17,5.17,5.73,6.39H41.64l-5.33-6.13v6.13H34.72Z"/><path class="cls-1" d="M46,108.84c0,1.66.66,2.9,2.31,2.9a1.75,1.75,0,0,0,1.89-1.66h1.5a2.73,2.73,0,0,1-.69,1.68,3.48,3.48,0,0,1-2.77,1.07c-2.53,0-3.73-1.57-3.73-4.11,0-1.58.32-2.9,1.58-3.78a3.86,3.86,0,0,1,2.19-.59c3.6,0,3.52,3.19,3.49,4.5Zm4.24-1.06c0-.77-.13-2.37-2-2.37a2.16,2.16,0,0,0-2.19,2.37Z"/><path class="cls-1" d="M54,106.18c0-.54,0-1.1-.08-1.63h1.52l0,1.55a2.17,2.17,0,0,1,1.92-1.58,4.86,4.86,0,0,1,1,0V106a1.31,1.31,0,0,0-.29-.06,3.23,3.23,0,0,0-.43,0c-1.78,0-2.19,1.06-2.19,2.43v4.27H54Z"/><path class="cls-1" d="M61.24,110.2c0,.61.3,1.46,1.76,1.46a1.64,1.64,0,0,0,1.41-.51,1.26,1.26,0,0,0,.26-.75c0-.78-.56-.93-1.76-1.2-1.68-.38-3.09-.72-3.09-2.4,0-1.47,1.28-2.43,3.14-2.43,1,0,2.42.29,2.9,1.25a2.55,2.55,0,0,1,.21,1.17H64.52c0-1.22-1-1.31-1.55-1.31-.22,0-1.63,0-1.63,1.15,0,.74.72.91,1.14,1,2.23.53,2.71.66,3.19,1.1a2,2,0,0,1,.61,1.49,2.43,2.43,0,0,1-1.09,2,4.51,4.51,0,0,1-2.38.54c-1.63,0-3.15-.67-3.14-2.61Z"/><path class="cls-1" d="M67.4,104.52h1.42v-1.68l1.49-.48v2.16H72.1v1.1H70.31v4.82c0,.4,0,1.07,1.07,1.07a3.3,3.3,0,0,0,.72-.08v1.17a7.32,7.32,0,0,1-1.25.1c-1.38,0-2-.4-2-1.71v-5.36H67.4Z"/><path class="cls-1" d="M73.73,101.06h1.81v1.65H73.73Zm.16,3.49h1.5v8h-1.5Z"/><path class="cls-1" d="M78.11,105.48l0-.93h1.5l0,1.3a2.62,2.62,0,0,1,2.58-1.46,2.68,2.68,0,0,1,2.91,2.74v5.46H83.57v-5.11a1.81,1.81,0,0,0-.43-1.38,2.06,2.06,0,0,0-1.42-.54,2.13,2.13,0,0,0-2.1,2.4v4.63h-1.5Z"/><path class="cls-1" d="M92.37,101H94v5.06L98.77,101H101L95.8,106.2l5.73,6.39H99.29L94,106.45v6.13H92.37Z"/><path class="cls-1" d="M104.07,104.55v5.17c0,.78.18,1.78,1.71,1.78a2.17,2.17,0,0,0,1.89-.9,2.6,2.6,0,0,0,.34-1.5v-4.55h1.55v6.53c0,.16,0,1.06,0,1.5H108l0-1.38a2.51,2.51,0,0,1-2.56,1.46,2.57,2.57,0,0,1-2.91-2.72v-5.39Z"/><path class="cls-1" d="M113.28,110.2c0,.61.3,1.46,1.76,1.46a1.64,1.64,0,0,0,1.41-.51,1.26,1.26,0,0,0,.26-.75c0-.78-.56-.93-1.76-1.2-1.68-.38-3.09-.72-3.09-2.4,0-1.47,1.28-2.43,3.14-2.43,1,0,2.42.29,2.9,1.25a2.55,2.55,0,0,1,.21,1.17h-1.54c0-1.22-1-1.31-1.55-1.31-.22,0-1.63,0-1.63,1.15,0,.74.72.91,1.14,1,2.22.53,2.71.66,3.18,1.1a2,2,0,0,1,.61,1.49,2.44,2.44,0,0,1-1.09,2,4.52,4.52,0,0,1-2.39.54c-1.63,0-3.15-.67-3.14-2.61Z"/><path class="cls-1" d="M121.43,110.2c0,.61.3,1.46,1.76,1.46a1.64,1.64,0,0,0,1.41-.51,1.26,1.26,0,0,0,.26-.75c0-.78-.56-.93-1.76-1.2-1.68-.38-3.09-.72-3.09-2.4,0-1.47,1.28-2.43,3.14-2.43,1,0,2.42.29,2.9,1.25a2.55,2.55,0,0,1,.21,1.17h-1.54c0-1.22-1-1.31-1.55-1.31-.22,0-1.63,0-1.63,1.15,0,.74.72.91,1.14,1,2.22.53,2.71.66,3.18,1.1a2,2,0,0,1,.61,1.49,2.44,2.44,0,0,1-1.09,2,4.52,4.52,0,0,1-2.39.54c-1.63,0-3.15-.67-3.14-2.61Z"/><path class="cls-1" d="M128.55,105.62l0-1.07H130v1.17a2.73,2.73,0,0,1,2.54-1.38,2.55,2.55,0,0,1,2.63,1.5,2.88,2.88,0,0,1,2.71-1.5,2.67,2.67,0,0,1,2.95,2.85v5.39h-1.52v-5.15a2,2,0,0,0-.27-1.22,1.81,1.81,0,0,0-1.54-.71,2.06,2.06,0,0,0-1.71.85,3.32,3.32,0,0,0-.35,1.73v4.5h-1.52v-5.31a1.63,1.63,0,0,0-1.76-1.76,2.16,2.16,0,0,0-1.76.88,2.8,2.8,0,0,0-.35,1.63v4.56h-1.52Z"/><path class="cls-1" d="M148.45,112.58a4.32,4.32,0,0,1-.14-1.2,2.6,2.6,0,0,1-2.48,1.46c-1.84,0-2.83-1-2.83-2.37a2.64,2.64,0,0,1,1.41-2.35,6.26,6.26,0,0,1,2.79-.53c.38,0,.62,0,1.09,0,0-1,0-1.42-.29-1.78a1.84,1.84,0,0,0-1.39-.53c-1.52,0-1.6,1-1.62,1.36h-1.5a2.56,2.56,0,0,1,.56-1.52,3.63,3.63,0,0,1,2.59-.86c1.17,0,2.42.37,2.85,1.18a2.37,2.37,0,0,1,.27,1.23l-.06,3.84a18.57,18.57,0,0,0,.13,2Zm-1-4c-.61,0-2.9,0-2.9,1.63,0,.51.32,1.39,1.66,1.39a1.93,1.93,0,0,0,1.71-.86,3.78,3.78,0,0,0,.38-2.11A6.64,6.64,0,0,0,147.41,108.63Z"/><path class="cls-1" d="M153.71,104.55v5.17c0,.78.18,1.78,1.71,1.78a2.17,2.17,0,0,0,1.89-.9,2.6,2.6,0,0,0,.34-1.5v-4.55h1.55v6.53c0,.16,0,1.06,0,1.5h-1.57l0-1.38a2.51,2.51,0,0,1-2.56,1.46,2.57,2.57,0,0,1-2.91-2.72v-5.39Z"/><path class="cls-1" d="M161.92,101h1.5v11.54h-1.5Z"/><path class="cls-1" d="M32.93,139.3h3.33c1.54,0,3.36,0,4.63,1.5a6.61,6.61,0,0,1,1.42,4.34,5.89,5.89,0,0,1-1.91,4.71c-1.13.94-2.55.94-4.23.94H32.93Zm1.59,10.19h1.56a5.11,5.11,0,0,0,3-.64,4.46,4.46,0,0,0,1.51-3.64,5.72,5.72,0,0,0-1.11-3.58,3.68,3.68,0,0,0-3.06-1H34.52Z"/><path class="cls-1" d="M48,142.59c3.2,0,3.92,2.51,3.92,4.19,0,2.34-1.32,4.28-4,4.28s-3.93-1.83-3.93-4.17C43.91,144.92,44.83,142.59,48,142.59Zm-.1,7.35c1.13,0,2.42-.81,2.42-3.21,0-2-.92-3-2.32-3-1,0-2.5.6-2.5,3.1C45.47,148.43,46.17,149.94,47.87,149.94Z"/><path class="cls-1" d="M54.49,142.8l1.93,6.37,2-6.37h2l1.81,6.3,2-6.3h1.54l-2.82,8H61.23l-1.88-6.57-2.08,6.57H55.5l-2.64-8Z"/><path class="cls-1" d="M67.44,143.72l0-.92h1.5l0,1.29a2.61,2.61,0,0,1,2.56-1.45,2.67,2.67,0,0,1,2.9,2.72v5.43H72.86v-5.08a1.8,1.8,0,0,0-.43-1.37A2,2,0,0,0,71,143.8a2.12,2.12,0,0,0-2.08,2.39v4.6h-1.5Z"/><path class="cls-1" d="M77,139.31h1.5v11.47H77Z"/><path class="cls-1" d="M84.75,142.59c3.2,0,3.92,2.51,3.92,4.19,0,2.34-1.32,4.28-4,4.28s-3.93-1.83-3.93-4.17C80.7,144.92,81.62,142.59,84.75,142.59Zm-.1,7.35c1.13,0,2.42-.81,2.42-3.21,0-2-.92-3-2.32-3-1,0-2.5.6-2.5,3.1C82.26,148.43,83,149.94,84.66,149.94Z"/><path class="cls-1" d="M95.77,150.79a4.31,4.31,0,0,1-.14-1.19A2.58,2.58,0,0,1,93.16,151c-1.83,0-2.82-1-2.82-2.36a2.63,2.63,0,0,1,1.4-2.34,6.23,6.23,0,0,1,2.77-.53c.38,0,.62,0,1.08,0,0-1,0-1.42-.29-1.77a1.83,1.83,0,0,0-1.38-.52c-1.51,0-1.59,1-1.61,1.35h-1.5a2.54,2.54,0,0,1,.56-1.51,3.6,3.6,0,0,1,2.58-.86,3.22,3.22,0,0,1,2.83,1.18,2.36,2.36,0,0,1,.27,1.23L97,148.78a18.53,18.53,0,0,0,.13,2Zm-1-3.93c-.61,0-2.88,0-2.88,1.62,0,.51.32,1.38,1.66,1.38a1.92,1.92,0,0,0,1.7-.86,3.76,3.76,0,0,0,.38-2.1A6.55,6.55,0,0,0,94.74,146.86Z"/><path class="cls-1" d="M105.24,139.31h1.5v10.2c0,.18,0,.86.06,1.27h-1.5l0-1.27a2.28,2.28,0,0,1-.72.84,3.63,3.63,0,0,1-2,.59c-1.07,0-3.44-.56-3.44-4.06,0-3,1.73-4.36,3.61-4.36a2.57,2.57,0,0,1,2.48,1.35Zm-.56,5.14a2.17,2.17,0,0,0-1.75-.81c-2.2,0-2.2,2.66-2.2,3.2,0,1.42.37,3.06,2.2,3.06,2.36,0,2.36-2.59,2.36-3.21A3.42,3.42,0,0,0,104.68,144.45Z"/><path class="cls-1" d="M113.85,139.3h3.85c1.4,0,2.36.08,3.13.92a3.11,3.11,0,0,1,.84,2.23,3,3,0,0,1-.91,2.24c-.6.61-1.4,1-3.47,1h-1.86v5.11h-1.59Zm1.59,5h1.89c1.05,0,2.66-.08,2.66-2s-1.5-1.8-2.32-1.8h-2.23Z"/><path class="cls-1" d="M123.55,139.3h3.33c1.54,0,3.36,0,4.63,1.5a6.61,6.61,0,0,1,1.42,4.34,5.89,5.89,0,0,1-1.91,4.71c-1.13.94-2.55.94-4.23.94h-3.23Zm1.59,10.19h1.56a5.11,5.11,0,0,0,3-.64,4.46,4.46,0,0,0,1.51-3.64,5.72,5.72,0,0,0-1.11-3.58,3.68,3.68,0,0,0-3.06-1h-1.91Z"/><path class="cls-1" d="M135.15,139.3H142v1.35h-5.22v3.58h4.92v1.34h-4.92v5.22h-1.62Z"/></svg>