<?xml version="1.0" encoding="utf-8"?>
<!-- Generator: Adobe Illustrator 16.0.0, SVG Export Plug-In . SVG Version: 6.00 Build 0)  -->
<!DOCTYPE svg PUBLIC "-//W3C//DTD SVG 1.1//EN" "http://www.w3.org/Graphics/SVG/1.1/DTD/svg11.dtd">
<svg version="1.1" id="Layer_1" xmlns="http://www.w3.org/2000/svg" xmlns:xlink="http://www.w3.org/1999/xlink" x="0px" y="0px"
	 width="100px" height="100px" viewBox="0 0 100 100" enable-background="new 0 0 100 100" xml:space="preserve">
<g>
	<defs>
		<rect id="SVGID_1_" width="100" height="100"/>
	</defs>
	<clipPath id="SVGID_2_">
		<use xlink:href="#SVGID_1_"  overflow="visible"/>
	</clipPath>
	<path clip-path="url(#SVGID_2_)" fill="#212121" d="M24.743,37.585c-0.175-1.066-1.034-1.798-2.595-1.798
		c-1.082,0-1.988,0.286-2.593,0.97c-1.002,1.115-1.226,2.611-1.226,3.693c0,0.97,0.207,2.61,1.051,3.613
		c0.747,0.859,1.909,1.129,3.055,1.129c1.305,0,2.133-0.254,2.498-0.366V41.42h-2.625v-1.32h4.217v5.665
		c-0.668,0.223-2.133,0.7-4.09,0.7c-2.117,0-3.358-0.604-4.17-1.432c-1.129-1.146-1.607-2.753-1.607-4.376
		c0-1.146,0.287-3.852,2.467-5.316c1.13-0.764,2.626-0.812,3.199-0.812c0.906,0,2.291,0.112,3.39,1.226
		c0.684,0.716,0.731,1.385,0.763,1.83H24.743z"/>
	<path clip-path="url(#SVGID_2_)" fill="#212121" d="M30.236,42.487c-0.031,1.656,0.653,2.881,2.292,2.881
		c0.971,0,1.751-0.509,1.878-1.655h1.496c-0.048,0.398-0.111,1.05-0.684,1.671c-0.351,0.398-1.146,1.066-2.753,1.066
		c-2.516,0-3.709-1.559-3.709-4.09c0-1.575,0.318-2.881,1.576-3.756c0.764-0.541,1.719-0.589,2.18-0.589
		c3.582,0,3.502,3.167,3.469,4.472H30.236z M34.453,41.437c0.017-0.764-0.127-2.355-1.973-2.355c-0.97,0-2.148,0.588-2.18,2.355
		H34.453z"/>
	<path clip-path="url(#SVGID_2_)" fill="#212121" d="M38.195,39.145l-0.016-0.923h1.496l0.016,1.289
		c0.175-0.334,0.748-1.448,2.563-1.448c0.715,0,2.896,0.27,2.896,2.722v5.426h-1.528v-5.076c0-0.526-0.064-1.003-0.43-1.369
		c-0.382-0.366-0.907-0.541-1.416-0.541c-1.083,0-2.085,0.779-2.085,2.387v4.599h-1.496V39.145z"/>
	<path clip-path="url(#SVGID_2_)" fill="#212121" d="M48.764,42.487c-0.032,1.656,0.653,2.881,2.292,2.881
		c0.971,0,1.75-0.509,1.878-1.655h1.496c-0.048,0.398-0.111,1.05-0.685,1.671c-0.351,0.398-1.146,1.066-2.753,1.066
		c-2.515,0-3.709-1.559-3.709-4.09c0-1.575,0.318-2.881,1.576-3.756c0.764-0.541,1.719-0.589,2.181-0.589
		c3.58,0,3.501,3.167,3.469,4.472H48.764z M52.982,41.437c0.016-0.764-0.128-2.355-1.974-2.355c-0.971,0-2.148,0.588-2.18,2.355
		H52.982z"/>
	<path clip-path="url(#SVGID_2_)" fill="#212121" d="M56.74,39.846c0-0.542-0.032-1.098-0.08-1.624h1.512l0.032,1.544
		c0.286-1.114,1.241-1.48,1.91-1.575c0.445-0.064,0.779-0.048,1.034-0.032v1.464c-0.08-0.032-0.175-0.048-0.287-0.064
		c-0.111-0.016-0.254-0.016-0.43-0.016c-1.766,0-2.18,1.051-2.18,2.419v4.25H56.74V39.846z"/>
	<path clip-path="url(#SVGID_2_)" fill="#212121" d="M67.723,46.211c-0.111-0.398-0.144-0.78-0.144-1.194
		c-0.716,1.322-1.798,1.449-2.467,1.449c-1.83,0-2.816-1.035-2.816-2.355c0-0.637,0.223-1.656,1.4-2.34
		c0.859-0.477,2.133-0.525,2.77-0.525c0.382,0,0.62,0.015,1.082,0.048c0-0.987,0-1.417-0.287-1.767
		c-0.301-0.398-0.954-0.525-1.384-0.525c-1.513,0-1.592,1.034-1.607,1.352h-1.496c0.048-0.413,0.095-0.97,0.557-1.512
		c0.604-0.668,1.734-0.859,2.578-0.859c1.162,0,2.403,0.366,2.833,1.178c0.255,0.477,0.271,0.859,0.271,1.225l-0.063,3.82
		c0,0.127,0.016,1.194,0.127,2.005H67.723z M66.688,42.28c-0.604,0-2.881,0-2.881,1.624c0,0.509,0.318,1.384,1.655,1.384
		c0.764,0,1.337-0.302,1.703-0.86c0.335-0.541,0.35-0.986,0.382-2.1C67.277,42.296,67.055,42.28,66.688,42.28"/>
	<path clip-path="url(#SVGID_2_)" fill="#212121" d="M70.541,38.19h1.417V36.52l1.479-0.477v2.148h1.784v1.098h-1.784v4.79
		c0,0.398,0,1.067,1.067,1.067c0.303,0,0.589-0.048,0.717-0.08v1.162c-0.271,0.047-0.701,0.095-1.242,0.095
		c-1.368,0-2.021-0.398-2.021-1.702v-5.332h-1.417V38.19z"/>
	<path clip-path="url(#SVGID_2_)" fill="#212121" d="M77.943,42.487c-0.032,1.656,0.652,2.881,2.292,2.881
		c0.971,0,1.75-0.509,1.878-1.655h1.496c-0.048,0.398-0.111,1.05-0.685,1.671c-0.351,0.398-1.146,1.066-2.753,1.066
		c-2.515,0-3.709-1.559-3.709-4.09c0-1.575,0.318-2.881,1.576-3.756c0.764-0.541,1.719-0.589,2.18-0.589
		c3.581,0,3.502,3.167,3.47,4.472H77.943z M82.161,41.437c0.016-0.764-0.128-2.355-1.974-2.355c-0.971,0-2.148,0.588-2.181,2.355
		H82.161z"/>
	<path clip-path="url(#SVGID_2_)" fill="#212121" d="M36.381,53.823h3.852c1.4,0,2.355,0.079,3.135,0.923
		c0.573,0.589,0.843,1.368,0.843,2.228c0,0.876-0.286,1.624-0.907,2.244c-0.604,0.605-1.4,0.987-3.47,0.987h-1.861v5.108h-1.592
		V53.823z M37.973,58.868h1.894c1.049,0,2.658-0.08,2.658-1.958c0-1.798-1.496-1.798-2.323-1.798h-2.229V58.868z"/>
	<path clip-path="url(#SVGID_2_)" fill="#212121" d="M46.075,53.823h3.326c1.544,0,3.359,0,4.632,1.496
		c1.019,1.193,1.416,2.769,1.416,4.345c0,2.482-1.034,4.01-1.91,4.71c-1.13,0.939-2.546,0.939-4.233,0.939h-3.231V53.823z
		 M47.667,64.009h1.56c1.097,0,2.244-0.064,3.007-0.637c1.464-1.099,1.512-2.977,1.512-3.645c0-0.43-0.031-2.388-1.114-3.581
		c-0.731-0.812-1.654-1.003-3.056-1.003h-1.909V64.009z"/>
	<polygon clip-path="url(#SVGID_2_)" fill="#212121" points="57.679,53.823 64.522,53.823 64.522,55.176 59.302,55.176 
		59.302,58.757 64.22,58.757 64.22,60.094 59.302,60.094 59.302,65.313 57.679,65.313 	"/>
	<path clip-path="url(#SVGID_2_)" fill="#212121" d="M100,100H0V0h100V100z M1,99h98V1H1V99z"/>
</g>
</svg>
