<svg id="Layer_1" data-name="Layer 1" xmlns="http://www.w3.org/2000/svg" viewBox="0 0 100 100"><defs><style>.cls-1{fill:#fffdf7;}.cls-2{fill:#212121;}</style></defs><title>mtd_generateArtboard 3 copy</title><rect class="cls-1" width="100" height="100"/><path class="cls-2" d="M100,100H0V0H100ZM1,99H99V1H1Z"/><path class="cls-2" d="M24.58,37.39c-.18-1.07-1-1.81-2.61-1.81a3.32,3.32,0,0,0-2.61,1,5.54,5.54,0,0,0-1.23,3.71,6.06,6.06,0,0,0,1.06,3.63A4,4,0,0,0,22.25,45a8.08,8.08,0,0,0,2.51-.37V41.25H22.13V39.92h4.24v5.7a12.63,12.63,0,0,1-4.11.7,5.5,5.5,0,0,1-4.19-1.44,6.18,6.18,0,0,1-1.62-4.4c0-1.15.29-3.87,2.48-5.35a6,6,0,0,1,3.22-.82,4.56,4.56,0,0,1,3.41,1.23,2.65,2.65,0,0,1,.77,1.84Z"/><path class="cls-2" d="M30.11,42.32c0,1.66.66,2.9,2.31,2.9a1.75,1.75,0,0,0,1.89-1.66h1.5a2.73,2.73,0,0,1-.69,1.68,3.48,3.48,0,0,1-2.77,1.07c-2.53,0-3.73-1.57-3.73-4.11,0-1.58.32-2.9,1.58-3.78a3.86,3.86,0,0,1,2.19-.59c3.6,0,3.52,3.19,3.49,4.5Zm4.24-1.06c0-.77-.13-2.37-2-2.37a2.16,2.16,0,0,0-2.19,2.37Z"/><path class="cls-2" d="M38.14,39l0-.93h1.5l0,1.3a2.62,2.62,0,0,1,2.58-1.46,2.68,2.68,0,0,1,2.91,2.74v5.46H43.6V41a1.81,1.81,0,0,0-.43-1.38A2.06,2.06,0,0,0,41.74,39a2.13,2.13,0,0,0-2.1,2.4v4.63h-1.5Z"/><path class="cls-2" d="M48.78,42.32c0,1.66.66,2.9,2.31,2.9A1.75,1.75,0,0,0,53,43.56h1.5a2.73,2.73,0,0,1-.69,1.68A3.48,3.48,0,0,1,51,46.31c-2.53,0-3.73-1.57-3.73-4.11,0-1.58.32-2.9,1.58-3.78a3.86,3.86,0,0,1,2.19-.59c3.6,0,3.52,3.19,3.49,4.5ZM53,41.27c0-.77-.13-2.37-2-2.37a2.16,2.16,0,0,0-2.19,2.37Z"/><path class="cls-2" d="M56.84,39.67c0-.54,0-1.1-.08-1.63h1.52l0,1.55A2.17,2.17,0,0,1,60.24,38a4.86,4.86,0,0,1,1,0v1.47a1.31,1.31,0,0,0-.29-.06,3.24,3.24,0,0,0-.43,0c-1.78,0-2.19,1.06-2.19,2.43v4.27H56.84Z"/><path class="cls-2" d="M67.89,46.07a4.32,4.32,0,0,1-.14-1.2,2.6,2.6,0,0,1-2.48,1.46c-1.84,0-2.83-1-2.83-2.37a2.65,2.65,0,0,1,1.41-2.35,6.27,6.27,0,0,1,2.79-.53c.38,0,.62,0,1.09,0,0-1,0-1.42-.29-1.78A1.84,1.84,0,0,0,66,38.82c-1.52,0-1.6,1-1.62,1.36h-1.5a2.56,2.56,0,0,1,.56-1.52,3.63,3.63,0,0,1,2.59-.86c1.17,0,2.42.37,2.85,1.18a2.37,2.37,0,0,1,.27,1.23l-.06,3.84a18.7,18.7,0,0,0,.13,2Zm-1-4c-.61,0-2.9,0-2.9,1.63,0,.51.32,1.39,1.66,1.39a1.93,1.93,0,0,0,1.71-.86,3.77,3.77,0,0,0,.38-2.11A6.62,6.62,0,0,0,66.85,42.11Z"/><path class="cls-2" d="M70.65,38h1.42V36.32l1.49-.48V38h1.79v1.1H73.56v4.82c0,.4,0,1.07,1.07,1.07a3.3,3.3,0,0,0,.72-.08v1.17a7.32,7.32,0,0,1-1.25.1c-1.38,0-2-.4-2-1.71V39.11H70.65Z"/><path class="cls-2" d="M78.12,42.32c0,1.66.66,2.9,2.31,2.9a1.75,1.75,0,0,0,1.89-1.66h1.5a2.73,2.73,0,0,1-.69,1.68,3.48,3.48,0,0,1-2.77,1.07c-2.53,0-3.73-1.57-3.73-4.11,0-1.58.32-2.9,1.58-3.78a3.86,3.86,0,0,1,2.19-.59c3.6,0,3.52,3.19,3.49,4.5Zm4.24-1.06c0-.77-.13-2.37-2-2.37a2.16,2.16,0,0,0-2.19,2.37Z"/><path class="cls-2" d="M36.58,56.59c-.18-1.07-1-1.81-2.61-1.81a3.32,3.32,0,0,0-2.61,1,5.54,5.54,0,0,0-1.23,3.71,6.06,6.06,0,0,0,1.06,3.63,4,4,0,0,0,3.07,1.14,8.08,8.08,0,0,0,2.51-.37V60.45H34.13V59.12h4.24v5.7a12.63,12.63,0,0,1-4.11.7,5.5,5.5,0,0,1-4.19-1.44,6.18,6.18,0,0,1-1.62-4.4c0-1.15.29-3.87,2.48-5.35a6,6,0,0,1,3.22-.82,4.56,4.56,0,0,1,3.41,1.23,2.65,2.65,0,0,1,.77,1.84Z"/><path class="cls-2" d="M42.58,57.23V62.4c0,.78.18,1.78,1.71,1.78a2.17,2.17,0,0,0,1.89-.9,2.6,2.6,0,0,0,.34-1.5V57.23h1.55v6.53c0,.16,0,1.06,0,1.5H46.55l0-1.38A2.52,2.52,0,0,1,44,65.35,2.57,2.57,0,0,1,41,62.63V57.23Z"/><path class="cls-2" d="M50.84,53.74h1.81v1.65H50.84ZM51,57.23h1.5v8H51Z"/><path class="cls-2" d="M61,53.73h1.5V64c0,.18,0,.86.06,1.28h-1.5L61,64a2.3,2.3,0,0,1-.72.85,3.65,3.65,0,0,1-2,.59c-1.07,0-3.46-.56-3.46-4.08,0-3.06,1.75-4.39,3.63-4.39A2.59,2.59,0,0,1,61,58.32Zm-.56,5.17a2.18,2.18,0,0,0-1.76-.82c-2.21,0-2.21,2.67-2.21,3.22,0,1.42.37,3.07,2.21,3.07C61,64.37,61,61.76,61,61.14A3.43,3.43,0,0,0,60.44,58.9Z"/><path class="cls-2" d="M66.12,61.52c0,1.66.66,2.9,2.31,2.9a1.75,1.75,0,0,0,1.89-1.66h1.5a2.73,2.73,0,0,1-.69,1.68,3.48,3.48,0,0,1-2.77,1.07c-2.53,0-3.73-1.57-3.73-4.11,0-1.58.32-2.9,1.58-3.78A3.86,3.86,0,0,1,68.41,57c3.6,0,3.52,3.19,3.49,4.5Zm4.24-1.06c0-.77-.13-2.37-2-2.37a2.16,2.16,0,0,0-2.19,2.37Z"/></svg>