<?xml version="1.0" encoding="utf-8"?>
<!-- Generator: Adobe Illustrator 16.0.0, SVG Export Plug-In . SVG Version: 6.00 Build 0)  -->
<!DOCTYPE svg PUBLIC "-//W3C//DTD SVG 1.1//EN" "http://www.w3.org/Graphics/SVG/1.1/DTD/svg11.dtd">
<svg version="1.1" id="Layer_1" xmlns="http://www.w3.org/2000/svg" xmlns:xlink="http://www.w3.org/1999/xlink" x="0px" y="0px"
	 width="18px" height="5px" viewBox="0 0 18 5" enable-background="new 0 0 18 5" xml:space="preserve">
<g>
	<path fill="#757576" d="M17.779,2.561c-1.151,0.492-2.062,1.379-2.854,2.291l-0.24-0.228c0.276-0.396,0.624-0.779,0.983-1.151
		c0.108-0.108,0.168-0.24,0.168-0.336c0-0.12-0.096-0.24-0.312-0.24H0.221V2.104h15.315c0.12,0,0.312-0.144,0.312-0.264
		c0-0.108-0.048-0.18-0.168-0.3c-0.348-0.336-0.72-0.768-0.983-1.164l0.24-0.228c0.78,0.9,1.691,1.811,2.842,2.291V2.561z"/>
</g>
</svg>
