<?xml version="1.0" encoding="utf-8"?>
<!-- Generator: Adobe Illustrator 16.0.0, SVG Export Plug-In . SVG Version: 6.00 Build 0)  -->
<!DOCTYPE svg PUBLIC "-//W3C//DTD SVG 1.1//EN" "http://www.w3.org/Graphics/SVG/1.1/DTD/svg11.dtd">
<svg version="1.1" id="Layer_1" xmlns="http://www.w3.org/2000/svg" xmlns:xlink="http://www.w3.org/1999/xlink" x="0px" y="0px"
	 width="100px" height="100px" viewBox="0 0 100 100" enable-background="new 0 0 100 100" xml:space="preserve">
<rect fill="#FFFFFF" width="100" height="100"/>
<g>
	<defs>
		<rect id="SVGID_1_" width="100" height="100"/>
	</defs>
	<clipPath id="SVGID_2_">
		<use xlink:href="#SVGID_1_"  overflow="visible"/>
	</clipPath>
	<path clip-path="url(#SVGID_2_)" fill="#212121" d="M35.668,44.272h3.852c1.4,0,2.354,0.079,3.135,0.923
		c0.573,0.589,0.843,1.369,0.843,2.228c0,0.875-0.287,1.623-0.907,2.244c-0.605,0.605-1.4,0.986-3.47,0.986H37.26v5.109h-1.592
		V44.272z M37.26,49.317h1.893c1.05,0,2.658-0.08,2.658-1.958c0-1.798-1.496-1.798-2.323-1.798H37.26V49.317z"/>
	<rect x="45.362" y="44.288" clip-path="url(#SVGID_2_)" fill="#212121" width="1.496" height="11.475"/>
	<path clip-path="url(#SVGID_2_)" fill="#212121" d="M54.466,55.763c-0.111-0.397-0.144-0.78-0.144-1.193
		c-0.716,1.32-1.798,1.448-2.467,1.448c-1.83,0-2.817-1.035-2.817-2.355c0-0.637,0.223-1.655,1.401-2.34
		c0.859-0.478,2.133-0.525,2.77-0.525c0.382,0,0.619,0.017,1.082,0.048c0-0.987,0-1.416-0.287-1.766
		c-0.302-0.398-0.954-0.526-1.385-0.526c-1.512,0-1.591,1.035-1.606,1.353h-1.496c0.048-0.414,0.095-0.971,0.557-1.512
		c0.604-0.668,1.734-0.859,2.578-0.859c1.162,0,2.403,0.366,2.833,1.177c0.255,0.478,0.271,0.86,0.271,1.226l-0.063,3.82
		c0,0.127,0.016,1.193,0.127,2.005H54.466z M53.432,51.832c-0.605,0-2.881,0-2.881,1.623c0,0.509,0.317,1.385,1.655,1.385
		c0.764,0,1.337-0.303,1.703-0.859c0.334-0.541,0.35-0.987,0.382-2.101C54.021,51.848,53.797,51.832,53.432,51.832"/>
	<polygon clip-path="url(#SVGID_2_)" fill="#212121" points="61.899,55.811 60.753,58.786 59.21,58.786 60.42,55.73 57.094,47.773 
		58.78,47.773 61.279,54.076 63.825,47.773 65.448,47.773 	"/>
</g>
</svg>
